<svg width="1754" height="1837" viewBox="0 0 1754 1837" fill="none" xmlns="http://www.w3.org/2000/svg">
<path fill-rule="evenodd" clip-rule="evenodd" d="M877.01 1296.98L877.02 1297V1296.95L908.664 1221.5L940.664 1210.5L959.664 1261L951.664 1394.5L959.664 1423.5L988.164 1404L1011.16 1408.5L1043.66 1434.5H1068.16L1117.16 1386L1140.16 1356.5L1201.16 1351L1254.16 1328L1385.16 1391L1424.66 1432.5L1450.16 1443L1486.66 1404L1514.16 1353.5L1553.16 1149V1081.5L1624.66 1131.5L1680.66 1164L1688.66 1048L1625.66 867L1572.66 767L1487.16 633.5L1413.66 564.5L1333.66 545L1092.66 402L904.664 385L877.02 385H849.5L661.5 402L420.5 545L340.5 564.5L267 633.5L181.5 767L128.5 867L65.5001 1048L73.5001 1164L129.5 1131.5L201 1081.5V1149L240 1353.5L267.5 1404L304 1443L329.5 1432.5L369 1391L500 1328L553 1351L614 1356.5L637 1386L686 1434.5H710.5L743 1408.5L766 1404L794.5 1423.5L802.5 1394.5L794.5 1261L813.5 1210.5L845.5 1221.5L877 1296.95V1297L877.01 1296.98Z" fill="#462A15"/>
<path fill-rule="evenodd" clip-rule="evenodd" d="M872.5 1254L877 1284.5L881.664 1254C886.664 1242.33 897.564 1218.3 901.164 1215.5C905.664 1212 926.664 1212 931.664 1212.5C935.664 1212.9 946.664 1237.67 951.664 1250L954.164 1322C952.331 1346.83 948.564 1397 948.164 1399C947.764 1401 922.331 1490.83 909.664 1535.5L889.664 1570.5L877 1575L864.5 1570.5L844.5 1535.5C831.833 1490.83 806.4 1401 806 1399C805.6 1397 801.833 1346.83 800 1322L802.5 1250C807.5 1237.67 818.5 1212.9 822.5 1212.5C827.5 1212 848.5 1212 853 1215.5C856.6 1218.3 867.5 1242.33 872.5 1254Z" fill="#2F2925"/>
<path fill-rule="evenodd" clip-rule="evenodd" d="M175 1140.5C165.833 1200.33 147.5 1330.2 147.5 1371C122.667 1432.17 169.4 1643.9 229 1703.5C288.6 1763.1 314.167 1804 319.5 1817C371.826 1776.6 517.375 1720.33 602.101 1687.57C639.473 1673.12 665.011 1663.24 665.496 1661.32L877 1799L1088.5 1661.32C1088.99 1663.24 1114.53 1673.12 1151.9 1687.57C1236.63 1720.33 1382.17 1776.6 1434.5 1817C1439.83 1804 1465.4 1763.1 1525 1703.5C1584.6 1643.9 1631.33 1432.17 1606.5 1371C1606.5 1330.2 1588.17 1200.33 1579 1140.5C1576.17 1150.17 1570.4 1170.1 1570 1172.5C1569.93 1172.92 1569.32 1173.43 1568.32 1174.25C1562.29 1179.23 1542.14 1195.87 1543 1277C1543.8 1352.6 1537.33 1335.17 1534 1317L1506.5 1371C1495.33 1387.5 1472.6 1420.9 1471 1422.5C1470.92 1422.58 1470.8 1422.7 1470.65 1422.86C1467.06 1426.52 1444.65 1449.41 1436.5 1435.5C1428 1421 1396 1384.5 1377.5 1371C1359 1357.5 1306.5 1339 1280 1336.5C1253.5 1334 1196 1350 1173 1357C1154.6 1362.6 1121.33 1385.67 1107 1396.5C1089.83 1414.67 1055.5 1449.6 1055.5 1444C1055.5 1438.4 1032.5 1420 1021 1411.5L985 1406.5L941 1444C945.8 1474.4 900.333 1551.67 877 1586.5C853.667 1551.67 808.2 1474.4 813 1444L769 1406.5L733 1411.5C721.5 1420 698.5 1438.4 698.5 1444C698.5 1449.6 664.167 1414.67 647 1396.5C632.667 1385.67 599.4 1362.6 581 1357C558 1350 500.5 1334 474 1336.5C447.5 1339 395 1357.5 376.5 1371C358 1384.5 326 1421 317.5 1435.5C309.349 1449.41 286.943 1426.52 283.355 1422.86C283.201 1422.7 283.082 1422.58 283 1422.5C281.4 1420.9 258.667 1387.5 247.5 1371L220 1317C216.667 1335.17 210.2 1352.6 211 1277C211.859 1195.87 191.709 1179.23 185.676 1174.25C184.682 1173.43 184.071 1172.92 184 1172.5C183.6 1170.1 177.833 1150.17 175 1140.5Z" fill="#9A7B4D"/>
<path d="M986.5 1445.5C975.5 1450.5 956 1466 942 1469.5L944.5 1431.5H964L980 1414L1003 1409L1035 1423.5L1050 1471L1029.5 1510.5C1036.2 1479.83 1013 1451 986.5 1445.5Z" fill="#5D3B17"/>
<path d="M1071 1613C1118 1535.5 1130.5 1490 1121 1403.5L1139 1366L1160 1374.5C1163 1395.33 1168.8 1438 1168 1442C1167 1447 1161 1484 1160 1492C1159.2 1498.4 1145.67 1538.67 1139 1558L1121 1604.5L1068 1631L1071 1613Z" fill="#5D3B17"/>
<path d="M1169 1570.5C1148.05 1601.85 1135.67 1617.99 1111 1641C1107.33 1645 1099 1653 1095 1653C1090 1653 1080.5 1647.5 1080.5 1645.5C1080.5 1643.5 1086.5 1633 1088 1630C1089.5 1627 1104.5 1606.5 1106 1603C1107.2 1600.2 1119.5 1581.5 1125.5 1572.5L1152.5 1530L1169 1485.5C1176.33 1441.17 1191.2 1352 1192 1350C1192.8 1348 1198 1346.17 1200.5 1345.5L1243 1344C1256.33 1339.5 1285.3 1333.5 1294.5 1345.5C1303.7 1357.5 1317 1350.5 1322.5 1345.5C1337 1349.83 1367.1 1359 1371.5 1361C1377 1363.5 1432 1427.5 1432 1434.5C1432 1440.1 1445 1436.83 1451.5 1434.5L1462 1432L1488.5 1395.5L1507 1384L1511.5 1394L1503 1442C1500.31 1428.55 1498.72 1420.07 1491 1416C1472.18 1522.66 1461.37 1579.2 1438 1627C1439.92 1577.58 1439.46 1552.34 1429.5 1522C1420.65 1553.32 1415.21 1567.05 1405 1585C1423 1477.5 1354 1402 1267 1395C1281.8 1426.22 1282.72 1453.19 1276 1512C1267.09 1469.86 1259.22 1449.16 1238.5 1419C1227.34 1489.05 1212.84 1525.83 1169 1586L1172.5 1565.5L1169 1570.5Z" fill="#5D3B17"/>
<path d="M1515 1520.5C1530.39 1462.68 1537.76 1429.97 1535 1368L1544 1303L1555 1241.5L1578 1222L1616 1287.5L1603.5 1394.5L1578 1546L1550 1642.5L1471.5 1783.5L1425 1821L1379 1776L1256 1724L1127 1683.5L1062.5 1670L1014 1699.5L922 1765L877 1797V1693C890.092 1706.98 893.671 1719.88 897 1747C918.167 1718.03 930.865 1705.97 955 1692L935.5 1716.5L937.5 1719C1011.11 1650.93 1032.83 1609.3 1060 1533L1057.5 1634L1120 1665L1193 1661C1196.26 1641.9 1195.25 1631.59 1188 1614L1217.5 1642.5L1338 1745L1342 1732C1341.64 1703.24 1336.36 1688.8 1321 1665L1379 1736L1430 1796C1458.47 1745.05 1469.84 1717.05 1483 1668L1487.5 1655.5L1442 1681C1489.9 1627 1512.16 1592.84 1533 1516L1537.5 1503.5L1515 1520.5Z" fill="#5D3B17"/>
<path d="M905 1628C934.53 1586.86 948.411 1562.94 957 1514C959.984 1537.58 959.205 1551.9 947 1577C984.809 1562.94 999.023 1550.69 1020 1525.5C1014.36 1573.18 1005.59 1596.13 981 1631C987.856 1611.14 990.6 1599.86 990 1579C971.086 1602.8 960.182 1614.62 940 1632C950.598 1615.89 955.698 1607.03 961 1592L905 1628Z" fill="#CCB88F"/>
<path d="M1075 1531C1078.76 1509.2 1079.93 1496.78 1079 1474C1083.64 1478.03 1085.44 1481.32 1088 1488C1097.9 1468.12 1101.89 1456.46 1107 1435C1112.29 1465 1110.45 1480.83 1102 1508C1102.45 1494.8 1102.26 1488.49 1100 1482C1091.16 1500.21 1087 1514 1075 1531Z" fill="#CCB88F"/>
<path d="M1268 1630C1246.16 1587.88 1241.27 1558.91 1242.5 1500C1251.09 1538.3 1259.17 1553.62 1282 1565C1334 1515.5 1305.5 1434.5 1267 1395C1373.55 1477.06 1382.5 1556 1342 1656C1356.49 1580.74 1355.79 1553.47 1343.5 1523.5C1327.9 1579.64 1311.94 1603.55 1268 1630Z" fill="#CCB88F"/>
<path d="M1340.16 878L1104.16 894.5C1039.44 980.299 1013.15 1028.38 1016.16 1114C1188.96 1206.8 1372.16 1085.5 1340.16 878Z" fill="#FFC500"/>
<path d="M979.664 1359C999.164 1276.5 1000.66 1218.5 966.164 1161.5L948.664 1195.5L954.664 1283L948.664 1419H966.164L989.664 1401.5L1015.66 1419L1059.16 1447L1109.16 1388L1158.16 1365.5L1214.16 1352.5L1323.66 1345.5L1456.16 1433L1507.16 1376L1552.66 1230L1600.16 1167.5C1617.16 1168 1656.06 1168.7 1675.66 1167.5C1695.26 1166.3 1714.83 1204.67 1722.16 1224C1743.16 930.5 1581.5 643.833 1366.16 539L1114.66 899L1228.16 874.5L1307.16 758C1304 781.503 1303.38 794.864 1304.16 819C1341.4 743.963 1368.68 713.405 1430.16 682C1401.02 748.363 1390.68 786.454 1383.16 856C1425.1 783.471 1450.38 765.508 1497.16 755C1464.68 826.825 1452.3 868.626 1437.16 945C1457.47 900.419 1470.97 877.92 1503.66 848C1601.5 943.208 1633.11 1012.04 1675.66 1144L1690.16 1156.5L1651.16 1145L1607.66 1111.5L1582.16 1065.5L1507.16 1021.5C1489.83 1023.34 1480.99 1025.6 1466.16 1031C1523.66 1246.5 1491.16 1352 1463.16 1376C1469.17 1327.77 1462.06 1307.46 1427.16 1285.5C1439 1280.44 1447.06 1278.59 1468.16 1280C1422.94 1253.75 1396.24 1245.42 1345.16 1247C1355.74 1239.93 1363.2 1236.21 1379.16 1230C1309.53 1226.85 1276.84 1237.31 1221.16 1261C1227.25 1250.94 1229.91 1242.92 1233.16 1224C1201.81 1254.52 1181.47 1266.68 1142.16 1283C1142.16 1283 1152.16 1267.5 1148.16 1226C1105.16 1309.5 1035.66 1329.5 1016.16 1349C1014.99 1350.17 1013.96 1351.22 1013.05 1352.14C1017.47 1322.37 1017.4 1297.93 1016.66 1261C1004.06 1320.56 995.373 1335.25 979.664 1359Z" fill="#281106"/>
<path d="M1002.16 1317.5C1011.64 1243.53 1007.57 1206.71 982.164 1150C1011.94 1189.45 1022.8 1214.08 1016.66 1269L1002.16 1317.5Z" fill="#91775E"/>
<path d="M1033.16 1298C1032.16 1287.5 1053.16 1230.5 1075.16 1207C1056.66 1264 1090.66 1249 1145.16 1175C1133.39 1215.93 1121.46 1239.06 1078.16 1281C1086.78 1266.83 1090.24 1259.67 1088.16 1253.5C1062.42 1250.53 1050.99 1269.08 1033.69 1297.15L1033.16 1298Z" fill="#91775E"/>
<path d="M1239.16 1209C1337.99 1141.21 1367.76 1100.48 1375.16 1023C1386 1038.2 1390.31 1049.16 1394.16 1074C1412.15 1056.13 1417.31 1045.77 1422.16 1027C1439.66 1074 1440.16 1186 1404.16 1218C1416.43 1177.53 1415.38 1157.58 1393.16 1129C1328.65 1183.28 1295.32 1198.75 1239.16 1209Z" fill="#91775E"/>
<mask id="path-16-inside-1_3_35" fill="white">
<path d="M1733 1304.5C1756.5 997.5 1658.5 670.5 1403 518C1369.32 536.879 1354.63 547.97 1359.5 581.5C1505 667 1611.5 851 1676 1144C1602.5 1021.5 1548 1021.5 1506.5 1021.5C1561 1225 1495 1385.5 1452.5 1417C1422 1356.5 1368 1333.69 1342.5 1317.5C1355 1305 1369.5 1301.5 1396.5 1292.5C1306.5 1270 1222.5 1321 1171 1337.5L1206 1282.5C1123 1337.5 1095.5 1367 1060.5 1429.5C1042.5 1409 1026.5 1396.5 1007 1388C1022 1351 1019 1331 1017 1306C998.5 1381 983.5 1386.5 958.5 1409.5L950.5 1441C965 1441 978 1436.5 992 1418C1022.82 1431.92 1033.38 1446.82 1050.2 1470.58L1050.5 1471C1153.5 1332.5 1346 1319.66 1438 1484C1468.3 1452.97 1483.17 1432.64 1506.5 1392L1503 1443C1562.81 1322.44 1581.73 1249.26 1573 1102.5C1595.74 1109.16 1609.55 1115.07 1659 1176.5C1694.49 1225.77 1710.3 1253.84 1733 1304.5Z"/>
</mask>
<path d="M1403 518L1467.06 410.665L1404.97 373.602L1341.88 408.96L1403 518ZM1733 1304.5L1618.93 1355.61L1857.64 1314.04L1733 1304.5ZM1659 1176.5L1760.42 1103.43L1758.47 1100.72L1756.37 1098.12L1659 1176.5ZM1573 1102.5L1608.14 982.541L1437.67 932.606L1448.22 1109.92L1573 1102.5ZM1503 1443L1378.29 1434.44L1614.98 1498.55L1503 1443ZM1506.5 1392L1631.21 1400.56L1398.09 1329.76L1506.5 1392ZM1438 1484L1328.93 1545.06L1410.61 1690.97L1527.43 1571.33L1438 1484ZM1050.5 1471L948.496 1543.25L1048.04 1683.78L1150.8 1545.59L1050.5 1471ZM1050.2 1470.58L948.197 1542.83L948.197 1542.83L1050.2 1470.58ZM992 1418L1043.45 1304.08L952.526 1263.02L892.324 1342.57L992 1418ZM950.5 1441L829.346 1410.23L789.786 1566H950.5V1441ZM958.5 1409.5L873.868 1317.51L846.5 1342.69L837.346 1378.73L958.5 1409.5ZM1017 1306L1141.6 1296.03L895.638 1276.06L1017 1306ZM1007 1388L891.158 1341.04L845.396 1453.92L957.052 1502.59L1007 1388ZM1060.5 1429.5L966.57 1511.98L1083.2 1644.8L1169.56 1490.58L1060.5 1429.5ZM1206 1282.5L1311.46 1349.61L1136.95 1178.3L1206 1282.5ZM1171 1337.5L1065.54 1270.39L879.972 1562L1209.14 1456.54L1171 1337.5ZM1396.5 1292.5L1436.03 1411.09L1843.26 1275.34L1426.82 1171.23L1396.5 1292.5ZM1342.5 1317.5L1254.11 1229.11L1143.82 1339.4L1275.49 1423.02L1342.5 1317.5ZM1452.5 1417L1340.88 1473.27L1407.69 1605.8L1526.93 1517.42L1452.5 1417ZM1506.5 1021.5V896.5H1343.62L1385.76 1053.84L1506.5 1021.5ZM1676 1144L1568.81 1208.31L1798.08 1117.13L1676 1144ZM1359.5 581.5L1235.8 599.476L1244.43 658.866L1296.17 689.27L1359.5 581.5ZM1338.94 625.335C1536.71 743.378 1630.05 1011.62 1608.36 1294.96L1857.64 1314.04C1882.95 983.382 1780.29 597.622 1467.06 410.665L1338.94 625.335ZM1557.58 1249.57C1588.06 1291.88 1599.65 1312.58 1618.93 1355.61L1847.07 1253.39C1820.95 1195.09 1800.92 1159.65 1760.42 1103.43L1557.58 1249.57ZM1756.37 1098.12C1730.92 1066.5 1707.96 1040.48 1684.11 1021.38C1653.68 997.02 1627.11 988.098 1608.14 982.541L1537.86 1222.46C1542.51 1223.82 1540.07 1223.3 1536.33 1221.56C1531.73 1219.42 1528.7 1217.21 1527.86 1216.54C1527.69 1216.4 1530.15 1218.37 1536.16 1224.87C1542.11 1231.29 1550.28 1240.78 1561.63 1254.88L1756.37 1098.12ZM1448.22 1109.92C1452.2 1176.75 1449.41 1219.5 1441.5 1256.3C1433.53 1293.37 1418.94 1331.17 1391.02 1387.45L1614.98 1498.55C1646.87 1434.27 1671.65 1375.19 1685.91 1308.84C1700.23 1242.23 1702.53 1175.01 1697.78 1095.08L1448.22 1109.92ZM1627.71 1451.56L1631.21 1400.56L1381.79 1383.44L1378.29 1434.44L1627.71 1451.56ZM1398.09 1329.76C1379.24 1362.61 1370.51 1374.2 1348.57 1396.67L1527.43 1571.33C1566.1 1531.74 1587.1 1502.67 1614.91 1454.24L1398.09 1329.76ZM1547.07 1422.94C1480.33 1303.73 1368.87 1238.97 1248.41 1238.94C1131.95 1238.9 1022.52 1299.16 950.197 1396.41L1150.8 1545.59C1181.48 1504.34 1219.8 1488.93 1248.34 1488.94C1272.88 1488.94 1303.67 1499.93 1328.93 1545.06L1547.07 1422.94ZM1152.5 1398.75L1152.21 1398.33L948.197 1542.83L948.496 1543.25L1152.5 1398.75ZM1152.21 1398.33C1145.17 1388.39 1131.92 1369.07 1113.91 1351.39C1093.43 1331.29 1070.35 1316.23 1043.45 1304.08L940.552 1531.92C943.042 1533.05 943.332 1533.38 942.373 1532.74C941.244 1531.99 939.91 1530.91 938.791 1529.81C937.859 1528.9 937.945 1528.81 939.512 1530.83C940.317 1531.87 941.371 1533.28 942.856 1535.34C944.383 1537.45 946.019 1539.75 948.197 1542.83L1152.21 1398.33ZM892.324 1342.57C893.576 1340.92 900.677 1332.13 915.127 1324.84C930.334 1317.17 944.028 1316 950.5 1316V1566C971.472 1566 998.916 1562.58 1027.75 1548.04C1055.82 1533.87 1076.42 1513.58 1091.68 1493.43L892.324 1342.57ZM1071.65 1471.77L1079.65 1440.27L837.346 1378.73L829.346 1410.23L1071.65 1471.77ZM1043.13 1501.49C1044.36 1500.36 1073.77 1476.88 1093.83 1447.14C1115.28 1415.31 1127.91 1378.33 1138.36 1335.94L895.638 1276.06C887.594 1308.67 883.466 1311.94 886.548 1307.36C888.538 1304.41 890.447 1302.64 889.754 1303.3C888.957 1304.05 887.796 1305.1 884.857 1307.68C882.315 1309.92 878.218 1313.51 873.868 1317.51L1043.13 1501.49ZM892.398 1315.97C892.544 1317.79 892.691 1319.55 892.819 1321.08C892.953 1322.67 893.064 1323.99 893.168 1325.28C893.377 1327.86 893.501 1329.61 893.579 1331.02C893.724 1333.65 893.648 1334.23 893.668 1333.94C893.699 1333.5 893.767 1333.33 893.64 1333.85C893.475 1334.54 892.88 1336.79 891.158 1341.04L1122.84 1434.96C1134.71 1405.7 1141.2 1378.51 1143.08 1351.06C1144.76 1326.65 1142.22 1303.77 1141.6 1296.03L892.398 1315.97ZM957.052 1502.59C957.323 1502.71 957.323 1502.72 957.208 1502.65C957.095 1502.58 957.206 1502.64 957.619 1502.96C958.506 1503.65 961.306 1505.98 966.57 1511.98L1154.43 1347.02C1127.9 1316.81 1097.66 1291.16 1056.95 1273.41L957.052 1502.59ZM1169.56 1490.58C1184.05 1464.71 1193.43 1451.99 1204.52 1440.69C1216.94 1428.02 1235.96 1412.6 1275.05 1386.7L1136.95 1178.3C1093.04 1207.4 1056.81 1234.23 1025.98 1265.69C993.815 1298.51 971.949 1331.79 951.437 1368.42L1169.56 1490.58ZM1100.54 1215.39L1065.54 1270.39L1276.46 1404.61L1311.46 1349.61L1100.54 1215.39ZM1209.14 1456.54C1227.95 1450.51 1248.92 1441.64 1262.58 1436.06C1278.68 1429.48 1292.55 1424.04 1306.34 1419.76C1334.1 1411.15 1352.34 1410.31 1366.18 1413.77L1426.82 1171.23C1350.66 1152.19 1281.9 1165.6 1232.28 1180.99C1207.38 1188.71 1184.97 1197.71 1168.03 1204.63C1148.64 1212.55 1139.8 1216.24 1132.86 1218.46L1209.14 1456.54ZM1356.97 1173.91C1346.05 1177.56 1293.05 1190.18 1254.11 1229.11L1430.89 1405.89C1429.18 1407.6 1427.26 1409.33 1425.14 1411.01C1423.03 1412.7 1420.94 1414.15 1418.98 1415.39C1415.08 1417.84 1412.31 1419 1412.08 1419.1C1411.98 1419.14 1412.34 1418.99 1413.39 1418.61C1414.46 1418.22 1415.92 1417.71 1418.06 1417C1420.24 1416.27 1422.63 1415.49 1425.75 1414.47C1428.73 1413.49 1432.25 1412.35 1436.03 1411.09L1356.97 1173.91ZM1275.49 1423.02C1281.13 1426.6 1286.79 1429.89 1290.88 1432.25C1295.69 1435.02 1298.87 1436.82 1302.84 1439.15C1310.12 1443.43 1315.84 1447.07 1320.9 1450.84C1330.45 1457.96 1336.61 1464.8 1340.88 1473.27L1564.12 1360.73C1513.76 1260.83 1415.98 1216.09 1409.51 1211.98L1275.49 1423.02ZM1526.93 1517.42C1560.74 1492.37 1583.58 1455.98 1598.37 1426.37C1614.87 1393.32 1628.62 1353.88 1638.06 1310.12C1657.02 1222.26 1659.9 1111.1 1627.24 989.163L1385.76 1053.84C1407.6 1135.4 1404.73 1206.24 1393.69 1257.38C1388.13 1283.12 1380.82 1302.43 1374.7 1314.69C1366.86 1330.39 1365.51 1325.88 1378.07 1316.58L1526.93 1517.42ZM1506.5 1146.5C1517.68 1146.5 1519.55 1146.71 1520.62 1146.88C1520.7 1146.89 1520.32 1146.83 1519.74 1146.64C1519.15 1146.44 1518.96 1146.31 1519.27 1146.48C1520.43 1147.11 1538.22 1157.32 1568.81 1208.31L1783.19 1079.69C1740.28 1008.18 1694.07 957.136 1639.23 927.141C1581.35 895.488 1529.27 896.5 1506.5 896.5V1146.5ZM1798.08 1117.13C1731.06 812.688 1613.65 585.861 1422.83 473.73L1296.17 689.27C1396.35 748.139 1491.94 889.313 1553.92 1170.87L1798.08 1117.13ZM1483.2 563.524C1483.34 564.472 1484.48 572.657 1482.04 584.763C1479.31 598.366 1473.25 611.008 1465.35 621.142C1461.83 625.658 1458.59 628.834 1456.41 630.778C1454.29 632.676 1452.91 633.632 1452.9 633.638C1452.9 633.639 1453.67 633.102 1455.71 631.88C1457.74 630.659 1460.39 629.13 1464.12 627.04L1341.88 408.96C1328.97 416.196 1293.56 434.907 1268.23 467.369C1233.75 511.577 1230.15 560.573 1235.8 599.476L1483.2 563.524Z" fill="black" mask="url(#path-16-inside-1_3_35)"/>
<mask id="path-18-inside-2_3_35" fill="white">
<path d="M1357.5 863.5L1156 879.5L1114 884L1121 915L1243.5 908C1260.81 927.565 1265.06 943.141 1262.5 979.5C1271 948.5 1274.01 939.593 1274 909C1279 932 1286.5 968 1273 997C1289.75 968.511 1298 950.5 1300.5 913C1310.51 952.086 1309.5 979.5 1296.5 1003.5C1319.01 966.674 1327 949.378 1327.5 928.5C1339.5 1065.5 1174 1172 1045 1097C1065 1104.84 1084.13 1107.02 1134 1106.5C1077.5 1097 1067 1086.5 1041 1058C1071.68 1077.88 1092.29 1082.81 1133.5 1083.5C1096 1073 1080.5 1061.5 1058 1030C1079.78 1046.95 1097.1 1053.74 1139 1060C1098.5 1041 1082.5 1014 1082.5 993.5L1066.5 988L993 1123C1022.65 1137.83 1041.77 1144.32 1080.5 1152.5C1076.43 1158.37 1069.73 1161.07 1055 1165.5C1186.07 1166.16 1236.5 1152.5 1295 1098C1295.85 1105.22 1293.76 1109.74 1289 1118C1341.43 1066.54 1357.05 1031.12 1361 956.5C1367.94 974.16 1368.55 987.183 1368.5 1011.5C1379.75 949.582 1372.85 918.368 1357.5 863.5Z"/>
</mask>
<path d="M1156 879.5L1145.71 749.908L1143.93 750.049L1142.15 750.24L1156 879.5ZM1357.5 863.5L1482.69 828.481L1453.87 725.438L1347.21 733.908L1357.5 863.5ZM1368.5 1011.5L1238.5 1011.22L1496.41 1034.74L1368.5 1011.5ZM1361 956.5L1481.99 908.944L1231.18 949.622L1361 956.5ZM1289 1118L1176.36 1053.09L1380.06 1210.78L1289 1118ZM1295 1098L1424.11 1082.82L1394.14 827.963L1206.39 1002.88L1295 1098ZM1055 1165.5L1017.51 1041.02L1054.35 1295.5L1055 1165.5ZM1080.5 1152.5L1187.28 1226.64L1298.97 1065.79L1107.37 1025.31L1080.5 1152.5ZM993 1123L878.825 1060.84L814.454 1179.07L934.861 1239.28L993 1123ZM1066.5 988L1108.76 865.061L1004.86 829.345L952.325 925.838L1066.5 988ZM1082.5 993.5H1212.5V900.721L1124.76 870.561L1082.5 993.5ZM1139 1060L1119.79 1188.57L1194.21 942.308L1139 1060ZM1058 1030L1137.84 927.407L952.215 1105.56L1058 1030ZM1133.5 1083.5L1131.33 1213.48L1168.55 958.315L1133.5 1083.5ZM1041 1058L1111.71 948.913L944.96 1145.62L1041 1058ZM1134 1106.5L1135.37 1236.49L1155.56 978.3L1134 1106.5ZM1045 1097L1092.46 975.973L979.659 1209.39L1045 1097ZM1327.5 928.5L1457 917.157L1197.54 925.4L1327.5 928.5ZM1296.5 1003.5L1182.19 941.583L1407.42 1071.3L1296.5 1003.5ZM1300.5 913L1426.44 880.753L1170.79 904.353L1300.5 913ZM1273 997L1155.14 942.136L1385.06 1062.89L1273 997ZM1274 909L1401.03 881.384L1144 909.056L1274 909ZM1262.5 979.5L1132.82 970.382L1387.87 1013.88L1262.5 979.5ZM1243.5 908L1340.87 821.871L1299.07 774.612L1236.08 778.212L1243.5 908ZM1121 915L994.193 943.634L1018.45 1051.07L1128.42 1044.79L1121 915ZM1114 884L1100.15 754.74L955.05 770.286L987.193 912.634L1114 884ZM1166.29 1009.09L1367.79 993.092L1347.21 733.908L1145.71 749.908L1166.29 1009.09ZM1232.31 898.519C1240.03 926.141 1242.63 937.846 1243.62 947.777C1244.4 955.565 1244.56 966.411 1240.59 988.263L1496.41 1034.74C1503.69 994.671 1506.03 958.951 1502.33 921.935C1498.85 887.063 1490.32 855.727 1482.69 828.481L1232.31 898.519ZM1498.5 1011.78C1498.56 985.101 1498.5 950.953 1481.99 908.944L1240.01 1004.06C1239.95 1003.91 1239.53 1002.79 1239.07 1000.99C1238.61 999.155 1238.38 997.66 1238.29 996.896C1238.22 996.336 1238.31 996.859 1238.39 999.317C1238.48 1001.92 1238.51 1005.47 1238.5 1011.22L1498.5 1011.78ZM1231.18 949.622C1229.59 979.711 1226.12 989.225 1224.4 993.089C1222.81 996.674 1218.45 1005.09 1197.94 1025.22L1380.06 1210.78C1411.98 1179.45 1441.64 1144.43 1461.95 1098.78C1482.14 1053.41 1488.46 1007.9 1490.82 963.378L1231.18 949.622ZM1401.64 1182.91C1407.99 1171.88 1430.26 1135.09 1424.11 1082.82L1165.89 1113.18C1165.18 1107.11 1164.84 1099.4 1165.69 1090.56C1166.55 1081.61 1168.42 1073.62 1170.65 1066.89C1174.3 1055.81 1179 1048.52 1176.36 1053.09L1401.64 1182.91ZM1206.39 1002.88C1188.79 1019.27 1179.3 1023.86 1167.23 1027.23C1149.35 1032.22 1119.27 1035.82 1055.65 1035.5L1054.35 1295.5C1121.8 1295.84 1182.47 1292.93 1237.2 1277.64C1297.74 1260.72 1342.71 1231.23 1383.61 1193.12L1206.39 1002.88ZM1092.49 1289.98C1097.13 1288.58 1152.83 1276.26 1187.28 1226.64L973.715 1078.36C979.891 1069.46 987.309 1061.56 995.549 1054.96C1003.39 1048.67 1010.41 1044.82 1014.78 1042.68C1016.97 1041.61 1018.72 1040.88 1019.8 1040.44C1020.88 1040 1021.55 1039.77 1021.63 1039.74C1021.72 1039.71 1021.46 1039.8 1020.72 1040.04C1019.97 1040.27 1018.95 1040.59 1017.51 1041.02L1092.49 1289.98ZM1107.37 1025.31C1077.64 1019.03 1069.32 1015.82 1051.14 1006.72L934.861 1239.28C975.985 1259.84 1005.9 1269.61 1053.63 1279.69L1107.37 1025.31ZM1107.17 1185.16L1180.67 1050.16L952.325 925.838L878.825 1060.84L1107.17 1185.16ZM1024.24 1110.94L1040.24 1116.44L1124.76 870.561L1108.76 865.061L1024.24 1110.94ZM952.5 993.5C952.5 1082.17 1016.28 1146.02 1083.79 1177.69L1194.21 942.308C1189.19 939.949 1192.63 940.348 1198.3 947.652C1203.68 954.595 1212.5 970.048 1212.5 993.5H952.5ZM1158.21 931.427C1149.64 930.148 1144.12 929.1 1140.48 928.275C1136.99 927.483 1136.02 927.069 1136.52 927.254C1137.25 927.53 1138.42 928.064 1139.49 928.688C1140.36 929.192 1140.02 929.102 1137.84 927.407L978.158 1132.59C996.697 1147.02 1017.9 1160.48 1045.4 1170.77C1070.43 1180.13 1095.79 1184.99 1119.79 1188.57L1158.21 931.427ZM952.215 1105.56C966.836 1126.03 986.154 1150.12 1014.56 1170.41C1043.3 1190.94 1072.75 1201.49 1098.45 1208.69L1168.55 958.315C1165.67 957.509 1163.67 956.877 1162.3 956.413C1160.96 955.954 1160.41 955.718 1160.45 955.734C1160.51 955.762 1161.14 956.038 1162.16 956.603C1163.2 957.181 1164.41 957.931 1165.69 958.84C1166.96 959.747 1168.01 960.612 1168.8 961.321C1169.56 962.01 1169.91 962.398 1169.81 962.292C1169.69 962.163 1169.15 961.555 1168.11 960.247C1167.07 958.926 1165.66 957.062 1163.79 954.439L952.215 1105.56ZM1135.67 953.518C1118.94 953.239 1115.93 952.105 1117.07 952.412C1117.91 952.637 1118.5 952.908 1118.32 952.825C1117.88 952.617 1115.93 951.646 1111.71 948.913L970.289 1167.09C993.197 1181.94 1018.53 1195.15 1049.53 1203.49C1078.95 1211.4 1106.84 1213.07 1131.33 1213.48L1135.67 953.518ZM944.96 1145.62C956.183 1157.92 978.236 1183.25 1011.68 1202.31C1044.92 1221.26 1080.01 1229.25 1112.44 1234.7L1155.56 978.3C1144.21 976.392 1138.61 974.985 1136.21 974.276C1134.36 973.727 1136.53 974.207 1140.44 976.436C1142.3 977.495 1143.96 978.611 1145.31 979.632C1146.6 980.608 1147.25 981.226 1147.12 981.103C1146.92 980.913 1146.11 980.141 1144.33 978.271C1142.48 976.33 1140.3 973.957 1137.04 970.385L944.96 1145.62ZM1132.63 976.507C1108.58 976.76 1097.73 976.231 1092.26 975.64C1090.15 975.412 1089.94 975.28 1090.82 975.493C1091.84 975.738 1092.57 976.015 1092.46 975.973L997.54 1218.03C1042.93 1235.83 1084.33 1237.03 1135.37 1236.49L1132.63 976.507ZM979.659 1209.39C1091.47 1274.39 1216.59 1258.62 1307.13 1203.04C1396.59 1148.13 1468.11 1043.96 1457 917.157L1198 939.843C1198.89 950.039 1193.66 967.622 1171.12 981.458C1149.66 994.629 1127.53 994.606 1110.34 984.614L979.659 1209.39ZM1197.54 925.4C1197.61 922.404 1198 918.726 1198.87 914.929C1199.69 911.347 1200.55 909.319 1200.5 909.426C1200.36 909.766 1199.45 911.828 1196.88 916.496C1194.31 921.16 1190.74 927.262 1185.58 935.705L1407.42 1071.3C1429.01 1035.97 1456.04 991.367 1457.46 931.6L1197.54 925.4ZM1410.81 1065.42C1445.8 1000.81 1440.48 935.594 1426.44 880.753L1174.56 945.247C1176.05 951.071 1176.73 954.919 1177.03 957.2C1177.33 959.435 1177.19 959.675 1177.25 958.39C1177.3 956.985 1177.57 954.335 1178.49 950.912C1179.43 947.438 1180.75 944.242 1182.19 941.583L1410.81 1065.42ZM1170.79 904.353C1170.43 909.719 1169.98 912.652 1169.72 914.019C1169.6 914.687 1169.51 915.043 1169.48 915.168C1169.44 915.286 1169.43 915.337 1169.41 915.386C1169.3 915.687 1168.43 918.37 1160.94 931.107L1385.06 1062.89C1394.33 1047.14 1405.95 1026.57 1414.78 1001.37C1424.04 974.945 1428.39 949.005 1430.21 921.647L1170.79 904.353ZM1390.86 1051.86C1409.94 1010.86 1411.67 970.941 1410.26 943.945C1408.83 916.735 1403.48 892.639 1401.03 881.384L1146.97 936.616C1148.19 942.255 1149.03 946.244 1149.67 950.069C1150.31 953.802 1150.54 956.188 1150.62 957.555C1150.69 958.964 1150.53 958.216 1150.86 955.847C1151.22 953.389 1152.22 948.413 1155.14 942.136L1390.86 1051.86ZM1144 909.056C1144 914.682 1143.86 917.589 1143.75 919.027C1143.67 920.134 1143.61 920.462 1143.56 920.725C1143.46 921.302 1143.14 922.867 1142.08 926.939C1140.88 931.539 1139.53 936.38 1137.13 945.124L1387.87 1013.88C1396.89 981.005 1404.02 957.976 1404 908.944L1144 909.056ZM1392.18 988.618C1393.75 966.26 1394.6 935.96 1386.05 903.915C1376.41 867.807 1358.3 841.568 1340.87 821.871L1146.13 994.129C1146.63 994.696 1144.54 992.442 1141.88 987.887C1138.94 982.862 1136.46 977.028 1134.85 970.99C1133.35 965.388 1133.18 961.748 1133.17 961.582C1133.17 961.516 1133.2 962.145 1133.16 963.672C1133.13 965.201 1133.03 967.375 1132.82 970.382L1392.18 988.618ZM1236.08 778.212L1113.58 785.212L1128.42 1044.79L1250.92 1037.79L1236.08 778.212ZM1247.81 886.366L1240.81 855.366L987.193 912.634L994.193 943.634L1247.81 886.366ZM1127.85 1013.26L1169.85 1008.76L1142.15 750.24L1100.15 754.74L1127.85 1013.26Z" fill="black" mask="url(#path-18-inside-2_3_35)"/>
<path d="M1136.5 904C1115.45 906.198 1101.62 897.018 1086.75 912C1071.88 926.982 1073.32 920.697 1071.38 941.662C1069.45 962.626 1074.87 983.611 1086.75 1001.04C1098.62 1018.47 1116.2 1031.27 1136.5 1037.25C1156.8 1043.23 1178.55 1042.03 1198.06 1033.85C1217.56 1025.67 1233.61 1011.01 1243.47 992.381C1253.33 973.75 1256.39 952.296 1252.13 931.674C1247.86 911.052 1249.45 907.751 1233 894.5L1167 904L1136.5 904Z" fill="black"/>
<mask id="path-21-inside-3_3_35" fill="white">
<path d="M1224.5 909L1135.5 914C1185.98 927.055 1209.39 935.079 1236.5 951.5C1236.79 932.647 1235 922.965 1224.5 909Z"/>
</mask>
<path d="M1135.5 914L1120.47 646.422L1068.39 1173.46L1135.5 914ZM1224.5 909L1438.71 747.947L1352.57 633.382L1209.47 641.422L1224.5 909ZM1236.5 951.5L1097.66 1180.73L1497.2 1422.72L1504.47 955.671L1236.5 951.5ZM1150.53 1181.58L1239.53 1176.58L1209.47 641.422L1120.47 646.422L1150.53 1181.58ZM1010.29 1070.05C1000.9 1057.57 984.859 1032.51 975.447 996.908C967.464 966.71 968.588 943.759 968.532 947.329L1504.47 955.671C1504.71 940.388 1505.08 903.169 1493.65 859.926C1480.79 811.276 1458.6 774.396 1438.71 747.947L1010.29 1070.05ZM1375.34 722.266C1313.5 684.816 1258.79 669.07 1202.61 654.538L1068.39 1173.46C1079.67 1176.38 1087.57 1178.54 1093.46 1180.26C1099.25 1181.96 1101.9 1182.89 1102.67 1183.17C1103.16 1183.35 1102.13 1182.98 1100.31 1182.11C1098.48 1181.23 1097.43 1180.59 1097.66 1180.73L1375.34 722.266Z" fill="white" mask="url(#path-21-inside-3_3_35)"/>
<path d="M767.5 1445.5C778.5 1450.5 798 1466 812 1469.5L809.5 1431.5H790L774 1414L751 1409L719 1423.5L704 1471L724.5 1510.5C717.8 1479.83 741 1451 767.5 1445.5Z" fill="#5D3B17"/>
<path d="M683 1613C636 1535.5 623.5 1490 633 1403.5L615 1366L594 1374.5C591 1395.33 585.2 1438 586 1442C587 1447 593 1484 594 1492C594.8 1498.4 608.333 1538.67 615 1558L633 1604.5L686 1631L683 1613Z" fill="#5D3B17"/>
<path d="M585 1570.5C605.95 1601.85 618.331 1617.99 643 1641C646.667 1645 655 1653 659 1653C664 1653 673.5 1647.5 673.5 1645.5C673.5 1643.5 667.5 1633 666 1630C664.5 1627 649.5 1606.5 648 1603C646.8 1600.2 634.5 1581.5 628.5 1572.5L601.5 1530L585 1485.5C577.667 1441.17 562.8 1352 562 1350C561.2 1348 556 1346.17 553.5 1345.5L511 1344C497.667 1339.5 468.7 1333.5 459.5 1345.5C450.3 1357.5 437 1350.5 431.5 1345.5C417 1349.83 386.9 1359 382.5 1361C377 1363.5 322 1427.5 322 1434.5C322 1440.1 309 1436.83 302.5 1434.5L292 1432L265.5 1395.5L247 1384L242.5 1394L251 1442C253.69 1428.55 255.277 1420.07 263 1416C281.822 1522.66 292.627 1579.2 316 1627C314.079 1577.58 314.541 1552.34 324.5 1522C333.352 1553.32 338.788 1567.05 349 1585C331 1477.5 400 1402 487 1395C472.196 1426.22 471.282 1453.19 478 1512C486.909 1469.86 494.781 1449.16 515.5 1419C526.66 1489.05 541.158 1525.83 585 1586L581.5 1565.5L585 1570.5Z" fill="#5D3B17"/>
<path d="M239 1520.5C223.615 1462.68 216.237 1429.97 219 1368L210 1303L199 1241.5L176 1222L138 1287.5L150.5 1394.5L176 1546L204 1642.5L282.5 1783.5L329 1821L375 1776L498 1724L627 1683.5L691.5 1670L740 1699.5L832 1765L877 1797V1693C863.908 1706.98 860.329 1719.88 857 1747C835.833 1718.03 823.135 1705.97 799 1692L818.5 1716.5L816.5 1719C742.894 1650.93 721.166 1609.3 694 1533L696.5 1634L634 1665L561 1661C557.741 1641.9 558.746 1631.59 566 1614L536.5 1642.5L416 1745L412 1732C412.364 1703.24 417.635 1688.8 433 1665L375 1736L324 1796C295.531 1745.05 284.158 1717.05 271 1668L266.5 1655.5L312 1681C264.1 1627 241.841 1592.84 221 1516L216.5 1503.5L239 1520.5Z" fill="#5D3B17"/>
<path d="M849 1628C819.47 1586.86 805.589 1562.94 797 1514C794.016 1537.58 794.795 1551.9 807 1577C769.191 1562.94 754.977 1550.69 734 1525.5C739.644 1573.18 748.407 1596.13 773 1631C766.144 1611.14 763.4 1599.86 764 1579C782.914 1602.8 793.818 1614.62 814 1632C803.402 1615.89 798.302 1607.03 793 1592L849 1628Z" fill="#CCB88F"/>
<path d="M679 1531C675.244 1509.2 674.073 1496.78 675 1474C670.356 1478.03 668.564 1481.32 666 1488C656.095 1468.12 652.109 1456.46 647 1435C641.715 1465 643.555 1480.83 652 1508C651.554 1494.8 651.744 1488.49 654 1482C662.839 1500.21 667 1514 679 1531Z" fill="#CCB88F"/>
<path d="M486 1630C507.841 1587.88 512.726 1558.91 511.5 1500C502.907 1538.3 494.831 1553.62 472 1565C420 1515.5 448.5 1434.5 487 1395C380.446 1477.06 371.5 1556 412 1656C397.509 1580.74 398.213 1553.47 410.5 1523.5C426.102 1579.64 442.062 1603.55 486 1630Z" fill="#CCB88F"/>
<path fill-rule="evenodd" clip-rule="evenodd" d="M877.031 1175.98V1178C845.031 1155.33 778 1104.9 766 1084.5C754 1064.1 631.333 871 571.5 777L43.5 13.0001H517.5L428 102.5L851 715.5L877.016 793.953L903.164 715.5L1326.16 102.5L1236.66 13.0001H1710.66L1182.66 777C1122.83 871 1000.16 1064.1 988.164 1084.5C976.168 1104.89 909.044 1153.3 877.031 1175.98Z" fill="#FF6A00"/>
<path d="M414 878L650 894.5C714.72 980.299 741.013 1028.38 738 1114C565.2 1206.8 382 1085.5 414 878Z" fill="#FFC500"/>
<path d="M774.5 1359C755 1276.5 753.5 1218.5 788 1161.5L805.5 1195.5L799.5 1283L805.5 1419H788L764.5 1401.5L738.5 1419L695 1447L645 1388L596 1365.5L540 1352.5L430.5 1345.5L298 1433L247 1376L201.5 1230L154 1167.5C137 1168 98.1002 1168.7 78.5002 1167.5C58.9002 1166.3 39.3334 1204.67 32 1224C10.9999 930.5 172.667 643.833 388 539L639.5 899L526 874.5L447 758C450.159 781.503 450.785 794.864 450 819C412.763 743.963 385.489 713.405 324 682C353.145 748.363 363.481 786.454 371 856C329.066 783.471 303.781 765.508 257 755C289.486 826.825 301.859 868.626 317 945C296.69 900.419 283.194 877.92 250.5 848C152.659 943.208 121.056 1012.04 78.5002 1144L64.0002 1156.5L103 1145L146.5 1111.5L172 1065.5L247 1021.5C264.33 1023.34 273.175 1025.6 288 1031C230.5 1246.5 263 1352 291 1376C284.991 1327.77 292.107 1307.46 327 1285.5C315.161 1280.44 307.103 1278.59 286 1280C331.22 1253.75 357.919 1245.42 409 1247C398.421 1239.93 390.968 1236.21 375 1230C444.639 1226.85 477.324 1237.31 533 1261C526.91 1250.94 524.258 1242.92 521 1224C552.349 1254.52 572.697 1266.68 612 1283C612 1283 602 1267.5 606 1226C649 1309.5 718.5 1329.5 738 1349C739.173 1350.17 740.206 1351.22 741.113 1352.14C736.691 1322.37 736.769 1297.93 737.5 1261C750.103 1320.56 758.791 1335.25 774.5 1359Z" fill="#281106"/>
<path fill-rule="evenodd" clip-rule="evenodd" d="M877 644C844.937 641.211 826.988 630.019 795 601L830.5 703L858.5 728L877 736L895.664 728L923.664 703L959.164 601C927.176 630.019 909.063 641.211 877 644Z" fill="#281106"/>
<path d="M752 1317.5C742.522 1243.53 746.599 1206.71 772 1150C742.221 1189.45 731.367 1214.08 737.5 1269L752 1317.5Z" fill="#91775E"/>
<path fill-rule="evenodd" clip-rule="evenodd" d="M872.5 389L877 392L881.664 389L889.164 385.5L1108.16 407.5V426C1075.85 414.746 1016.27 429.919 1001.16 442C1029.64 452.03 1038.58 457.758 1052.66 468L1046.16 478C983.51 460.709 946.187 456.063 877 455C807.813 456.063 770.654 460.709 708 478L701.5 468C715.581 457.758 724.519 452.03 753 442C737.898 429.919 678.313 414.746 646 426V407.5L865 385.5L872.5 389Z" fill="#91775E"/>
<path d="M721 1298C722 1287.5 701 1230.5 679 1207C697.5 1264 663.5 1249 609 1175C620.777 1215.93 632.702 1239.06 676 1281C667.379 1266.83 663.923 1259.67 666 1253.5C691.74 1250.53 703.176 1269.08 720.474 1297.15L721 1298Z" fill="#91775E"/>
<path d="M515 1209C416.175 1141.21 386.4 1100.48 379 1023C368.16 1038.2 363.849 1049.16 360 1074C342.016 1056.13 336.856 1045.77 332 1027C314.5 1074 314 1186 350 1218C337.735 1177.53 338.78 1157.58 361 1129C425.517 1183.28 458.847 1198.75 515 1209Z" fill="#91775E"/>
<path fill-rule="evenodd" clip-rule="evenodd" d="M419 33L347 104.5L877 864.5L1407.16 104.5L1335.16 33.0001L1323.16 17.0001L1305.16 12.5001C1292.5 15.1667 1266.36 21.2001 1263.16 24.0001C1259.96 26.8001 1266.83 41.5001 1270.66 48.5001L1329.66 109.5L877 787L424.5 109.5L483.5 48.5C487.333 41.5 494.2 26.8 491 24C487.8 21.2 461.667 15.1667 449 12.5L431 17L419 33Z" fill="white"/>
<path d="M877 1573C850.5 1498 834.5 1326 850 1260L856 1250.5L844 1235.5C829.333 1242.67 800 1257.6 800 1260C800 1262.4 803.333 1317 805 1344L821 1451.5C831.833 1485.17 854.2 1554 857 1560C859.8 1566 871.5 1571.17 877 1573Z" fill="white"/>
<path fill-rule="evenodd" clip-rule="evenodd" d="M877 1174.5L150.787 111.5L127.979 78.1146L97.5 33.5H116.81H191.965H358.191H418.998H468.5L425.659 76.3414L423.621 78.379L395.5 106.5L398.987 111.5L415.372 134.998L823.306 720L840.656 744.881L877 797L913.344 744.881L930.694 720L1338.63 134.998L1355.01 111.5L1358.5 106.5L1330.38 78.379L1328.34 76.3414L1285.5 33.5H1335H1395.81H1562.04H1637.19H1656.5L1626.02 78.1146L1603.21 111.5L877 1174.5ZM877 1297L820.342 1213.21L799 1181.65L52.7737 78.0473L46.3024 68.4768L0 6.10352e-05L94.2147 0.0843318L97.5 0.0872703L146.344 0.130959L169.182 0.151386L391.341 0.350098L435.389 0.389497L450.846 0.403322L468.5 0.419113L559 0.500061L498.438 63.4375L484.008 78.433L476.477 86.2592L468.5 94.5491L457 106.5L460.423 111.5L476.835 135.474L877 720L1277.16 135.474L1293.58 111.5L1297 106.5L1285.5 94.5491L1277.52 86.2592L1269.99 78.433L1255.56 63.4375L1195 0.500061L1285.5 0.419113L1303.15 0.403322L1318.61 0.389497L1362.66 0.350098L1584.82 0.151386L1607.66 0.130959L1656.5 0.0872703L1659.79 0.0843318L1754 6.10352e-05L1707.7 68.4768L1701.23 78.0473L955 1181.65L933.658 1213.21L877 1297Z" fill="black"/>
<mask id="path-41-inside-4_3_35" fill="white">
<path d="M21.3771 1304.5C-2.12292 997.5 95.8771 670.5 351.377 518C385.06 536.879 399.75 547.97 394.877 581.5C249.377 667 142.877 851 78.3771 1144C151.877 1021.5 206.377 1021.5 247.877 1021.5C193.377 1225 259.377 1385.5 301.877 1417C332.377 1356.5 386.377 1333.69 411.877 1317.5C399.377 1305 384.877 1301.5 357.877 1292.5C447.877 1270 531.877 1321 583.377 1337.5L548.377 1282.5C631.377 1337.5 658.877 1367 693.877 1429.5C711.877 1409 727.877 1396.5 747.377 1388C732.377 1351 735.377 1331 737.377 1306C755.877 1381 770.877 1386.5 795.877 1409.5L803.5 1441C789 1441 776.377 1436.5 762.377 1418C731.559 1431.92 721.001 1446.82 704.176 1470.58L703.877 1471C600.877 1332.5 408.377 1319.66 316.377 1484C286.074 1452.97 271.209 1432.64 247.877 1392L251.377 1443C191.565 1322.44 172.646 1249.26 181.377 1102.5C158.638 1109.16 144.827 1115.07 95.3771 1176.5C59.8832 1225.77 44.0754 1253.84 21.3771 1304.5Z"/>
</mask>
<path d="M351.377 518L287.312 410.665L349.409 373.602L412.493 408.96L351.377 518ZM21.3771 1304.5L135.452 1355.61L-103.258 1314.04L21.3771 1304.5ZM95.3771 1176.5L-6.04269 1103.43L-4.08872 1100.72L-1.99259 1098.12L95.3771 1176.5ZM181.377 1102.5L146.238 982.541L316.706 932.606L306.156 1109.92L181.377 1102.5ZM251.377 1443L376.084 1434.44L139.4 1498.55L251.377 1443ZM247.877 1392L123.17 1400.56L356.282 1329.76L247.877 1392ZM316.377 1484L425.449 1545.06L343.767 1690.97L226.943 1571.33L316.377 1484ZM703.877 1471L805.881 1543.25L706.341 1683.78L603.574 1545.59L703.877 1471ZM704.176 1470.58L806.181 1542.83L806.18 1542.83L704.176 1470.58ZM762.377 1418L710.929 1304.08L801.851 1263.02L862.053 1342.57L762.377 1418ZM803.5 1441L924.993 1411.6L962.358 1566H803.5V1441ZM795.877 1409.5L880.509 1317.51L908.443 1343.21L917.37 1380.1L795.877 1409.5ZM737.377 1306L612.775 1296.03L858.739 1276.06L737.377 1306ZM747.377 1388L863.22 1341.04L908.982 1453.92L797.325 1502.59L747.377 1388ZM693.877 1429.5L787.807 1511.98L671.18 1644.8L584.814 1490.58L693.877 1429.5ZM548.377 1282.5L442.919 1349.61L617.425 1178.3L548.377 1282.5ZM583.377 1337.5L688.835 1270.39L874.406 1562L545.238 1456.54L583.377 1337.5ZM357.877 1292.5L318.349 1411.09L-88.8827 1275.34L327.56 1171.23L357.877 1292.5ZM411.877 1317.5L500.266 1229.11L610.557 1339.4L478.888 1423.02L411.877 1317.5ZM301.877 1417L413.495 1473.27L346.683 1605.8L227.445 1517.42L301.877 1417ZM247.877 1021.5V896.5H410.759L368.622 1053.84L247.877 1021.5ZM78.3771 1144L185.564 1208.31L-43.7 1117.13L78.3771 1144ZM394.877 581.5L518.578 599.476L509.947 658.866L458.206 689.27L394.877 581.5ZM415.442 625.335C217.671 743.378 124.323 1011.62 146.012 1294.96L-103.258 1314.04C-128.569 983.382 -25.9169 597.622 287.312 410.665L415.442 625.335ZM196.797 1249.57C166.313 1291.88 154.728 1312.58 135.452 1355.61L-92.6978 1253.39C-66.5774 1195.09 -46.5469 1159.65 -6.04269 1103.43L196.797 1249.57ZM-1.99259 1098.12C23.457 1066.5 46.422 1040.48 70.2687 1021.38C100.701 997.02 127.266 988.098 146.238 982.541L216.517 1222.46C211.864 1223.82 214.31 1223.3 218.05 1221.56C222.643 1219.42 225.679 1217.21 226.518 1216.54C226.69 1216.4 224.227 1218.37 218.218 1224.87C212.267 1231.29 204.1 1240.78 192.747 1254.88L-1.99259 1098.12ZM306.156 1109.92C302.181 1176.75 304.971 1219.5 312.882 1256.3C320.85 1293.37 335.435 1331.17 363.354 1387.45L139.4 1498.55C107.507 1434.27 82.7263 1375.19 68.4644 1308.84C54.1457 1242.23 51.8422 1175.01 56.5977 1095.08L306.156 1109.92ZM126.67 1451.56L123.17 1400.56L372.584 1383.44L376.084 1434.44L126.67 1451.56ZM356.282 1329.76C375.139 1362.61 383.867 1374.2 405.811 1396.67L226.943 1571.33C188.281 1531.74 167.278 1502.67 139.472 1454.24L356.282 1329.76ZM207.306 1422.94C274.043 1303.73 385.511 1238.97 505.967 1238.94C622.429 1238.9 731.86 1299.16 804.18 1396.41L603.574 1545.59C572.894 1504.34 534.575 1488.93 506.037 1488.94C481.493 1488.94 450.711 1499.93 425.449 1545.06L207.306 1422.94ZM601.873 1398.75L602.172 1398.33L806.18 1542.83L805.881 1543.25L601.873 1398.75ZM602.171 1398.33C609.208 1388.39 622.452 1369.07 640.472 1351.39C660.95 1331.29 684.027 1316.23 710.929 1304.08L813.825 1531.92C811.335 1533.05 811.045 1533.38 812.004 1532.74C813.133 1531.99 814.467 1530.91 815.587 1529.81C816.518 1528.9 816.432 1528.81 814.865 1530.83C814.06 1531.87 813.006 1533.28 811.521 1535.34C809.994 1537.45 808.358 1539.75 806.181 1542.83L602.171 1398.33ZM862.053 1342.57C861.221 1341.47 854.264 1332.62 839.689 1325.16C824.126 1317.2 810.055 1316 803.5 1316V1566C782.445 1566 754.813 1562.55 725.813 1547.72C697.801 1533.38 677.533 1513.03 662.702 1493.43L862.053 1342.57ZM682.007 1470.4L674.384 1438.9L917.37 1380.1L924.993 1411.6L682.007 1470.4ZM711.245 1501.49C710.016 1500.36 680.61 1476.88 660.551 1447.14C639.093 1415.31 626.471 1378.33 616.015 1335.94L858.739 1276.06C866.783 1308.67 870.911 1311.94 867.829 1307.36C865.839 1304.41 863.93 1302.64 864.623 1303.3C865.42 1304.05 866.581 1305.1 869.52 1307.68C872.062 1309.92 876.159 1313.51 880.509 1317.51L711.245 1501.49ZM861.979 1315.97C861.833 1317.79 861.686 1319.55 861.558 1321.08C861.424 1322.67 861.314 1323.99 861.209 1325.28C861 1327.86 860.876 1329.61 860.798 1331.02C860.653 1333.65 860.729 1334.23 860.709 1333.94C860.678 1333.5 860.61 1333.33 860.737 1333.85C860.902 1334.54 861.497 1336.79 863.22 1341.04L631.535 1434.96C619.672 1405.7 613.179 1378.51 611.295 1351.06C609.62 1326.65 612.156 1303.77 612.775 1296.03L861.979 1315.97ZM797.325 1502.59C797.054 1502.71 797.054 1502.72 797.169 1502.65C797.282 1502.58 797.171 1502.64 796.758 1502.96C795.871 1503.65 793.071 1505.98 787.807 1511.98L599.947 1347.02C626.477 1316.81 656.721 1291.16 697.43 1273.41L797.325 1502.59ZM584.814 1490.58C570.326 1464.71 560.942 1451.99 549.858 1440.69C537.44 1428.02 518.421 1412.6 479.33 1386.7L617.425 1178.3C661.333 1207.4 697.564 1234.23 728.396 1265.69C760.562 1298.51 782.428 1331.79 802.94 1368.42L584.814 1490.58ZM653.835 1215.39L688.835 1270.39L477.919 1404.61L442.919 1349.61L653.835 1215.39ZM545.238 1456.54C526.432 1450.51 505.454 1441.64 491.801 1436.06C475.695 1429.48 461.823 1424.04 448.033 1419.76C420.273 1411.15 402.039 1410.31 388.194 1413.77L327.56 1171.23C403.715 1152.19 472.481 1165.6 522.096 1180.99C546.994 1188.71 569.403 1197.71 586.344 1204.63C605.738 1212.55 614.572 1216.24 621.516 1218.46L545.238 1456.54ZM397.405 1173.91C408.331 1177.56 461.33 1190.18 500.266 1229.11L323.488 1405.89C325.198 1407.6 327.12 1409.33 329.236 1411.01C331.351 1412.7 333.434 1414.15 335.398 1415.39C339.298 1417.84 342.063 1419 342.297 1419.1C342.401 1419.14 342.041 1418.99 340.988 1418.61C339.922 1418.22 338.456 1417.71 336.315 1417C334.132 1416.27 331.744 1415.49 328.628 1414.47C325.644 1413.49 322.129 1412.35 318.349 1411.09L397.405 1173.91ZM478.888 1423.02C473.244 1426.6 467.589 1429.89 463.492 1432.25C458.687 1435.02 455.508 1436.82 451.537 1439.15C444.257 1443.43 438.533 1447.07 433.48 1450.84C423.93 1457.96 417.766 1464.8 413.495 1473.27L190.259 1360.73C240.622 1260.83 338.4 1216.09 344.866 1211.98L478.888 1423.02ZM227.445 1517.42C193.641 1492.37 170.797 1455.98 156.012 1426.37C139.509 1393.32 125.76 1353.88 116.315 1310.12C97.3526 1222.26 94.4768 1111.1 127.132 989.163L368.622 1053.84C346.777 1135.4 349.652 1206.24 360.689 1257.38C366.244 1283.12 373.558 1302.43 379.68 1314.69C387.52 1330.39 388.864 1325.88 376.309 1316.58L227.445 1517.42ZM247.877 1146.5C236.693 1146.5 234.824 1146.71 233.761 1146.88C233.677 1146.89 234.057 1146.83 234.634 1146.64C235.224 1146.44 235.418 1146.31 235.104 1146.48C233.952 1147.11 216.156 1157.32 185.564 1208.31L-28.8096 1079.69C14.0977 1008.18 60.3026 957.136 115.15 927.141C173.03 895.488 225.109 896.5 247.877 896.5V1146.5ZM-43.7 1117.13C23.3181 812.688 140.728 585.861 331.548 473.73L458.206 689.27C358.026 748.139 262.436 889.313 200.454 1170.87L-43.7 1117.13ZM271.176 563.524C271.039 564.472 269.894 572.657 272.332 584.763C275.071 598.366 281.122 611.008 289.028 621.142C292.551 625.658 295.786 628.834 297.963 630.778C300.088 632.676 301.468 633.632 301.476 633.638C301.478 633.639 300.702 633.102 298.672 631.88C296.641 630.659 293.989 629.13 290.261 627.04L412.493 408.96C425.403 416.196 460.818 434.907 486.142 467.369C520.629 511.577 524.231 560.573 518.578 599.476L271.176 563.524Z" fill="black" mask="url(#path-41-inside-4_3_35)"/>
<mask id="path-43-inside-5_3_35" fill="white">
<path d="M396.877 863.5L598.377 879.5L640.377 884L633.377 915L510.877 908C493.571 927.565 489.32 943.141 491.877 979.5C483.377 948.5 480.364 939.593 480.377 909C475.377 932 467.877 968 481.377 997C464.625 968.511 456.377 950.5 453.877 913C443.869 952.086 444.877 979.5 457.877 1003.5C435.369 966.674 427.375 949.378 426.877 928.5C414.877 1065.5 580.377 1172 709.377 1097C689.375 1104.84 670.246 1107.02 620.377 1106.5C676.877 1097 687.377 1086.5 713.377 1058C682.701 1077.88 662.089 1082.81 620.877 1083.5C658.377 1073 673.877 1061.5 696.377 1030C674.593 1046.95 657.273 1053.74 615.377 1060C655.877 1041 671.877 1014 671.877 993.5L687.877 988L761.377 1123C731.724 1137.83 712.609 1144.32 673.877 1152.5C677.952 1158.37 684.65 1161.07 699.377 1165.5C568.308 1166.16 517.877 1152.5 459.377 1098C458.528 1105.22 460.617 1109.74 465.377 1118C412.949 1066.54 397.33 1031.12 393.377 956.5C386.436 974.16 385.825 987.183 385.877 1011.5C374.628 949.582 381.529 918.368 396.877 863.5Z"/>
</mask>
<path d="M598.377 879.5L608.667 749.908L610.449 750.049L612.226 750.24L598.377 879.5ZM396.877 863.5L271.683 828.481L300.506 725.438L407.167 733.908L396.877 863.5ZM385.877 1011.5L515.877 1011.22L257.971 1034.74L385.877 1011.5ZM393.377 956.5L272.388 908.944L523.195 949.622L393.377 956.5ZM465.377 1118L578.013 1053.09L374.318 1210.78L465.377 1118ZM459.377 1098L330.267 1082.82L360.235 827.963L547.992 1002.88L459.377 1098ZM699.377 1165.5L736.862 1041.02L700.03 1295.5L699.377 1165.5ZM673.877 1152.5L567.092 1226.64L455.41 1065.79L647.003 1025.31L673.877 1152.5ZM761.377 1123L875.552 1060.84L939.923 1179.07L819.516 1239.28L761.377 1123ZM687.877 988L645.617 865.061L749.517 829.345L802.052 925.838L687.877 988ZM671.877 993.5H541.877V900.721L629.617 870.561L671.877 993.5ZM615.377 1060L634.584 1188.57L560.163 942.308L615.377 1060ZM696.377 1030L616.535 927.407L802.162 1105.56L696.377 1030ZM620.877 1083.5L623.046 1213.48L585.825 958.315L620.877 1083.5ZM713.377 1058L642.666 948.913L809.417 1145.62L713.377 1058ZM620.377 1106.5L619.009 1236.49L598.821 978.3L620.377 1106.5ZM709.377 1097L661.917 975.973L774.718 1209.39L709.377 1097ZM426.877 928.5L297.373 917.157L556.84 925.4L426.877 928.5ZM457.877 1003.5L572.185 941.583L346.954 1071.3L457.877 1003.5ZM453.877 913L327.94 880.753L583.589 904.353L453.877 913ZM481.377 997L599.233 942.136L369.314 1062.89L481.377 997ZM480.377 909L353.344 881.384L610.377 909.056L480.377 909ZM491.877 979.5L621.557 970.382L366.505 1013.88L491.877 979.5ZM510.877 908L413.502 821.871L455.303 774.612L518.294 778.212L510.877 908ZM633.377 915L760.184 943.634L735.924 1051.07L625.961 1044.79L633.377 915ZM640.377 884L654.226 754.74L799.327 770.286L767.184 912.634L640.377 884ZM588.087 1009.09L386.587 993.092L407.167 733.908L608.667 749.908L588.087 1009.09ZM522.072 898.519C514.345 926.141 511.752 937.846 510.76 947.777C509.982 955.565 509.813 966.411 513.783 988.263L257.971 1034.74C250.692 994.671 248.35 958.951 252.047 921.935C255.53 887.063 264.061 855.727 271.683 828.481L522.072 898.519ZM255.877 1011.78C255.82 985.101 255.876 950.953 272.388 908.944L514.367 1004.06C514.424 1003.91 514.849 1002.79 515.304 1000.99C515.767 999.155 515.999 997.66 516.09 996.896C516.157 996.336 516.062 996.859 515.983 999.317C515.9 1001.92 515.864 1005.47 515.877 1011.22L255.877 1011.78ZM523.195 949.622C524.789 979.711 528.254 989.225 529.973 993.089C531.568 996.674 535.928 1005.09 556.436 1025.22L374.318 1210.78C342.397 1179.45 312.734 1144.43 292.424 1098.78C272.239 1053.41 265.918 1007.9 263.559 963.378L523.195 949.622ZM352.742 1182.91C346.386 1171.88 324.12 1135.09 330.267 1082.82L588.488 1113.18C589.201 1107.11 589.54 1099.4 588.69 1090.56C587.829 1081.61 585.953 1073.62 583.732 1066.89C580.076 1055.81 575.376 1048.52 578.013 1053.09L352.742 1182.91ZM547.992 1002.88C565.584 1019.27 575.079 1023.86 587.15 1027.23C605.023 1032.22 635.107 1035.82 698.725 1035.5L700.03 1295.5C632.578 1295.84 571.912 1292.93 517.177 1277.64C456.641 1260.72 411.67 1231.23 370.763 1193.12L547.992 1002.88ZM661.892 1289.98C657.242 1288.58 601.544 1276.26 567.092 1226.64L780.662 1078.36C774.486 1069.46 767.068 1061.56 758.828 1054.96C750.989 1048.67 743.971 1044.82 739.598 1042.68C737.402 1041.61 735.661 1040.88 734.58 1040.44C733.499 1040 732.831 1039.77 732.746 1039.74C732.658 1039.71 732.915 1039.8 733.662 1040.04C734.405 1040.27 735.428 1040.59 736.862 1041.02L661.892 1289.98ZM647.003 1025.31C676.738 1019.03 685.057 1015.82 703.239 1006.72L819.516 1239.28C778.392 1259.84 748.48 1269.61 700.751 1279.69L647.003 1025.31ZM647.202 1185.16L573.702 1050.16L802.052 925.838L875.552 1060.84L647.202 1185.16ZM730.137 1110.94L714.137 1116.44L629.617 870.561L645.617 865.061L730.137 1110.94ZM801.877 993.5C801.877 1082.17 738.097 1146.02 670.591 1177.69L560.163 942.308C565.192 939.949 561.744 940.348 556.081 947.652C550.697 954.595 541.877 970.048 541.877 993.5H801.877ZM596.17 931.427C604.733 930.148 610.255 929.1 613.895 928.275C617.387 927.483 618.356 927.069 617.862 927.254C617.124 927.53 615.954 928.064 614.885 928.688C614.022 929.192 614.358 929.102 616.535 927.407L776.219 1132.59C757.68 1147.02 736.481 1160.48 708.976 1170.77C683.947 1180.13 658.584 1184.99 634.584 1188.57L596.17 931.427ZM802.162 1105.56C787.541 1126.03 768.223 1150.12 739.813 1170.41C711.074 1190.94 681.627 1201.49 655.929 1208.69L585.825 958.315C588.702 957.509 590.711 956.877 592.074 956.413C593.421 955.954 593.967 955.718 593.93 955.734C593.864 955.762 593.233 956.038 592.215 956.603C591.174 957.181 589.963 957.931 588.691 958.84C587.421 959.747 586.371 960.612 585.582 961.321C584.815 962.01 584.467 962.398 584.564 962.292C584.683 962.163 585.229 961.555 586.265 960.247C587.31 958.926 588.718 957.062 590.592 954.439L802.162 1105.56ZM618.708 953.518C635.434 953.239 638.449 952.105 637.308 952.412C636.471 952.637 635.879 952.908 636.054 952.825C636.493 952.617 638.45 951.646 642.666 948.913L784.088 1167.09C761.18 1181.94 735.846 1195.15 704.848 1203.49C675.429 1211.4 647.532 1213.07 623.046 1213.48L618.708 953.518ZM809.417 1145.62C798.194 1157.92 776.141 1183.25 742.695 1202.31C709.454 1221.26 674.37 1229.25 641.933 1234.7L598.821 978.3C610.164 976.392 615.771 974.985 618.164 974.276C620.016 973.727 617.844 974.207 613.934 976.436C612.078 977.495 610.42 978.611 609.069 979.632C607.776 980.608 607.124 981.226 607.255 981.103C607.46 980.913 608.27 980.141 610.049 978.271C611.895 976.33 614.079 973.957 617.337 970.385L809.417 1145.62ZM621.745 976.507C645.8 976.76 656.646 976.231 662.115 975.64C664.224 975.412 664.44 975.28 663.556 975.493C662.542 975.738 661.81 976.015 661.917 975.973L756.837 1218.03C711.446 1235.83 670.043 1237.03 619.009 1236.49L621.745 976.507ZM774.718 1209.39C662.904 1274.39 537.786 1258.62 447.244 1203.04C357.784 1148.13 286.266 1043.96 297.373 917.157L556.381 939.843C555.488 950.039 560.72 967.622 583.261 981.458C604.718 994.629 626.85 994.606 644.036 984.614L774.718 1209.39ZM556.84 925.4C556.769 922.404 556.375 918.726 555.508 914.929C554.691 911.347 553.829 909.319 553.874 909.426C554.018 909.766 554.927 911.828 557.496 916.496C560.063 921.16 563.639 927.262 568.8 935.705L346.954 1071.3C325.364 1035.97 298.34 991.367 296.914 931.6L556.84 925.4ZM343.569 1065.42C308.576 1000.81 313.897 935.594 327.94 880.753L579.814 945.247C578.323 951.071 577.642 954.919 577.343 957.2C577.049 959.435 577.186 959.675 577.132 958.39C577.072 956.985 576.806 954.335 575.884 950.912C574.948 947.438 573.625 944.242 572.185 941.583L343.569 1065.42ZM583.589 904.353C583.947 909.719 584.397 912.652 584.653 914.019C584.778 914.687 584.869 915.043 584.902 915.168C584.933 915.286 584.95 915.337 584.968 915.386C585.073 915.687 585.95 918.37 593.44 931.107L369.314 1062.89C360.052 1047.14 348.429 1026.57 339.598 1001.37C330.337 974.945 325.989 949.005 324.165 921.647L583.589 904.353ZM363.521 1051.86C344.435 1010.86 342.703 970.941 344.118 943.945C345.544 916.735 350.897 892.639 353.344 881.384L607.41 936.616C606.184 942.255 605.35 946.244 604.703 950.069C604.071 953.802 603.833 956.188 603.761 957.555C603.687 958.964 603.852 958.216 603.513 955.847C603.162 953.389 602.155 948.413 599.233 942.136L363.521 1051.86ZM610.377 909.056C610.375 914.682 610.517 917.589 610.623 919.027C610.704 920.134 610.768 920.462 610.816 920.725C610.922 921.302 611.234 922.867 612.294 926.939C613.493 931.539 614.852 936.38 617.25 945.124L366.505 1013.88C357.491 981.005 350.356 957.976 350.377 908.944L610.377 909.056ZM362.197 988.618C360.625 966.26 359.772 935.96 368.329 903.915C377.971 867.807 396.08 841.568 413.502 821.871L608.252 994.129C607.75 994.696 609.837 992.442 612.498 987.887C615.434 982.862 617.916 977.028 619.528 970.99C621.024 965.388 621.195 961.748 621.202 961.582C621.205 961.516 621.176 962.145 621.212 963.672C621.249 965.201 621.345 967.375 621.557 970.382L362.197 988.618ZM518.294 778.212L640.794 785.212L625.961 1044.79L503.461 1037.79L518.294 778.212ZM506.57 886.366L513.57 855.366L767.184 912.634L760.184 943.634L506.57 886.366ZM626.528 1013.26L584.528 1008.76L612.226 750.24L654.226 754.74L626.528 1013.26Z" fill="black" mask="url(#path-43-inside-5_3_35)"/>
<path d="M617.876 904C638.929 906.198 652.756 897.018 667.629 912C682.501 926.982 681.052 920.697 682.992 941.662C684.932 962.626 679.502 983.611 667.629 1001.04C655.755 1018.47 638.172 1031.27 617.876 1037.25C597.579 1043.23 575.825 1042.03 556.32 1033.85C536.815 1025.67 520.765 1011.01 510.906 992.381C501.047 973.75 497.989 952.296 502.252 931.674C506.515 911.052 504.927 907.751 521.377 894.5L587.377 904L617.876 904Z" fill="black"/>
<mask id="path-46-inside-6_3_35" fill="white">
<path d="M529.877 909L618.877 914C568.401 927.055 544.99 935.079 517.877 951.5C517.584 932.647 519.378 922.965 529.877 909Z"/>
</mask>
<path d="M618.877 914L633.91 646.422L685.984 1173.46L618.877 914ZM529.877 909L315.667 747.947L401.802 633.382L544.91 641.422L529.877 909ZM517.877 951.5L656.714 1180.73L257.178 1422.72L249.91 955.671L517.877 951.5ZM603.845 1181.58L514.845 1176.58L544.91 641.422L633.91 646.422L603.845 1181.58ZM744.087 1070.05C753.473 1057.57 769.519 1032.51 778.93 996.908C786.913 966.71 785.789 943.759 785.845 947.329L249.91 955.671C249.672 940.388 249.298 903.169 260.73 859.926C273.59 811.276 295.781 774.396 315.667 747.947L744.087 1070.05ZM379.04 722.266C440.873 684.816 495.584 669.07 551.77 654.538L685.984 1173.46C674.703 1176.38 666.806 1178.54 660.914 1180.26C655.123 1181.96 652.481 1182.89 651.709 1183.17C651.216 1183.35 652.247 1182.98 654.064 1182.11C655.894 1181.23 656.949 1180.59 656.714 1180.73L379.04 722.266Z" fill="white" mask="url(#path-46-inside-6_3_35)"/>
<path fill-rule="evenodd" clip-rule="evenodd" d="M877 393H877.377L877.5 393L878.017 393.001C932.959 393.08 1010.47 399.601 1086 416L1101 393.5C1100.08 393.332 1099.16 393.165 1098.24 393C1095.89 392.576 1093.56 392.162 1091.26 391.758C1071.79 388.337 1054.15 385.632 1037.32 383.547C1020.16 381.421 1003.83 379.94 987.262 379C954.453 377.14 920.676 377.404 877.5 379H877.377H877H876.877C833.701 377.404 799.924 377.14 767.115 379C750.544 379.94 734.22 381.421 717.056 383.547C700.224 385.632 682.585 388.337 663.114 391.758C660.814 392.162 658.489 392.576 656.137 393C655.221 393.165 654.301 393.332 653.377 393.5L668.377 416C743.91 399.601 821.418 393.08 876.36 393.001L876.877 393L877 393Z" fill="black"/>
<path fill-rule="evenodd" clip-rule="evenodd" d="M877 1573C868.817 1561.89 860.693 1544.45 853.137 1522.98C852.603 1521.46 852.073 1519.92 851.545 1518.37C842.413 1491.45 834.182 1458.76 827.783 1424.51C818.956 1377.29 813.613 1327.11 814.192 1285.06C814.295 1277.6 814.584 1270.39 815.074 1263.5C829.086 1258.44 837.203 1257.8 852.074 1260L786.574 1161C784.637 1163.4 782.911 1166.52 781.394 1170.3C774.219 1188.14 771.708 1220.6 773.59 1260.55C774.309 1275.82 775.669 1292.18 777.655 1309.24C784.317 1366.45 798.021 1431.51 818.195 1489.45C821.659 1499.4 825.314 1509.14 829.157 1518.59C829.279 1518.89 829.402 1519.19 829.524 1519.49C837.39 1538.74 846.037 1556.79 855.441 1573C857.622 1576.76 859.845 1580.42 862.107 1583.97C866.892 1591.49 871.857 1598.52 877 1605C882.143 1598.52 887.108 1591.49 891.893 1583.97C894.156 1580.42 896.379 1576.76 898.561 1573C907.964 1556.8 916.612 1538.75 924.479 1519.5C924.603 1519.2 924.726 1518.89 924.849 1518.59C928.71 1509.1 932.381 1499.32 935.86 1489.32C956.022 1431.41 969.725 1366.39 976.394 1309.22C978.382 1292.17 979.745 1275.81 980.467 1260.55C982.357 1220.6 979.852 1188.14 972.679 1170.3C971.162 1166.52 969.437 1163.4 967.5 1161L902 1260C916.871 1257.8 924.988 1258.44 939 1263.5C939.49 1270.39 939.779 1277.6 939.881 1285.06C940.456 1327.08 935.107 1377.22 926.277 1424.42C919.864 1458.69 911.616 1491.42 902.468 1518.36C901.938 1519.92 901.405 1521.47 900.87 1522.99C893.308 1544.45 885.181 1561.9 877 1573Z" fill="black"/>
<path fill-rule="evenodd" clip-rule="evenodd" d="M98.9022 1260C102.151 1324.95 107.821 1384.69 117.025 1439.97C119.327 1453.79 121.851 1467.34 124.612 1480.61C125.454 1484.66 126.319 1488.69 127.206 1492.69L127.313 1493.17C128.926 1500.43 130.615 1507.6 132.38 1514.7C134.63 1523.74 137.005 1532.65 139.513 1541.44C144.608 1559.3 150.249 1576.64 156.487 1593.51C157.466 1596.16 158.458 1598.79 159.466 1601.41C164.232 1613.82 169.331 1625.96 174.783 1637.86C175.736 1639.93 176.699 1642.01 177.674 1644.07C178.661 1646.16 179.66 1648.25 180.67 1650.32C183.087 1655.29 185.569 1660.22 188.117 1665.1C190.292 1669.27 192.516 1673.41 194.789 1677.52C196.828 1681.21 198.908 1684.87 201.027 1688.51C205.418 1696.05 209.982 1703.49 214.726 1710.83C223.685 1724.69 233.286 1738.2 243.572 1751.4C252.516 1762.88 261.979 1774.12 271.987 1785.14C281.105 1795.18 290.677 1805.04 300.722 1814.72C304.412 1818.28 308.166 1821.82 311.985 1825.33L312 1825.34C316.252 1829.26 320.585 1833.14 325 1837C334.252 1829.45 343.34 1822.31 352.285 1815.56C357.138 1811.9 361.95 1808.36 366.722 1804.92C369.566 1802.87 372.396 1800.86 375.213 1798.89C384.886 1792.12 394.404 1785.81 403.794 1779.9C406.014 1778.5 408.226 1777.13 410.432 1775.77C419.898 1769.97 429.24 1764.58 438.487 1759.56C456.688 1749.68 474.52 1741.23 492.2 1733.89C496.31 1732.19 500.413 1730.54 504.51 1728.95C510.159 1726.76 515.797 1724.68 521.433 1722.69C521.935 1722.52 522.437 1722.34 522.939 1722.17C525.293 1721.34 527.647 1720.54 530 1719.75C537.264 1717.31 544.53 1715.03 551.811 1712.87C555.948 1711.65 560.09 1710.46 564.24 1709.32C567.75 1708.35 571.266 1707.41 574.789 1706.49C585.207 1703.78 595.692 1701.29 606.287 1698.95C608.961 1698.36 611.642 1697.77 614.33 1697.2C616.787 1696.68 619.25 1696.16 621.72 1695.65C626.091 1694.75 630.484 1693.87 634.902 1693C642.744 1691.46 650.665 1689.97 658.682 1688.51C659.081 1688.44 659.48 1688.36 659.88 1688.29C664.311 1687.48 668.772 1686.68 673.264 1685.89C676.822 1685.26 680.4 1684.63 684 1684C685.472 1684.98 686.936 1685.96 688.392 1686.94C691.446 1688.98 694.466 1691 697.452 1693C700.335 1694.93 703.186 1696.84 706.006 1698.73C713.844 1703.97 721.434 1709.05 728.776 1713.96C729.59 1714.51 730.401 1715.05 731.209 1715.59L732.347 1716.35C736.499 1719.12 740.57 1721.84 744.558 1724.5C747.319 1726.35 750.041 1728.16 752.723 1729.95L752.724 1729.95C755.552 1731.83 758.336 1733.68 761.076 1735.5C768.159 1740.21 774.949 1744.7 781.444 1748.98C790.103 1754.68 798.236 1759.99 805.839 1764.9C807.604 1766.03 809.34 1767.15 811.047 1768.24C825.428 1777.46 837.774 1785.1 848.046 1791.02C850.854 1792.64 853.507 1794.13 856.005 1795.49C856.477 1795.75 856.943 1796 857.403 1796.25L857.503 1796.31C865.851 1800.79 872.361 1803.73 877 1805C881.639 1803.73 888.149 1800.79 896.497 1796.31L896.597 1796.25C896.818 1796.13 897.041 1796.01 897.265 1795.89C897.507 1795.76 897.75 1795.63 897.995 1795.49C900.493 1794.13 903.146 1792.64 905.954 1791.02C916.226 1785.1 928.572 1777.46 942.953 1768.24C944.66 1767.15 946.396 1766.03 948.161 1764.9C955.764 1759.99 963.897 1754.68 972.556 1748.98C979.051 1744.7 985.841 1740.21 992.924 1735.5C995.664 1733.68 998.448 1731.83 1001.28 1729.95L1001.28 1729.95C1003.96 1728.16 1006.68 1726.35 1009.44 1724.5C1013.43 1721.84 1017.5 1719.12 1021.65 1716.35C1022.84 1715.56 1024.03 1714.76 1025.22 1713.96C1032.57 1709.05 1040.16 1703.97 1047.99 1698.73C1050.81 1696.84 1053.67 1694.93 1056.55 1693C1059.53 1691 1062.55 1688.98 1065.61 1686.94L1070 1684C1073.6 1684.63 1077.18 1685.26 1080.74 1685.89C1085.23 1686.68 1089.69 1687.48 1094.12 1688.29L1094.84 1688.42L1095.32 1688.51C1103.34 1689.97 1111.26 1691.46 1119.1 1693C1123.52 1693.87 1127.91 1694.75 1132.28 1695.65C1134.75 1696.16 1137.21 1696.68 1139.67 1697.2C1142.36 1697.77 1145.04 1698.36 1147.71 1698.95C1158.31 1701.29 1168.79 1703.78 1179.21 1706.49C1182.73 1707.41 1186.25 1708.35 1189.76 1709.32C1193.91 1710.46 1198.05 1711.65 1202.19 1712.87C1209.47 1715.03 1216.74 1717.31 1224 1719.75C1226.35 1720.54 1228.71 1721.34 1231.06 1722.17C1231.56 1722.34 1232.07 1722.52 1232.57 1722.69C1238.2 1724.68 1243.84 1726.76 1249.49 1728.95C1253.59 1730.54 1257.69 1732.19 1261.8 1733.89C1279.48 1741.23 1297.31 1749.68 1315.51 1759.56C1324.76 1764.58 1334.1 1769.97 1343.57 1775.77C1345.77 1777.13 1347.99 1778.5 1350.21 1779.9C1359.6 1785.81 1369.11 1792.12 1378.79 1798.89C1381.6 1800.86 1384.43 1802.87 1387.28 1804.92C1392.05 1808.36 1396.86 1811.9 1401.72 1815.56C1410.66 1822.31 1419.75 1829.45 1429 1837C1433.42 1833.14 1437.75 1829.26 1442 1825.34L1442.01 1825.33C1445.83 1821.82 1449.59 1818.28 1453.28 1814.72C1463.32 1805.04 1472.89 1795.18 1482.01 1785.14C1492.02 1774.12 1501.48 1762.88 1510.43 1751.4C1520.71 1738.2 1530.32 1724.69 1539.27 1710.83C1544.02 1703.49 1548.58 1696.05 1552.97 1688.51C1555.09 1684.87 1557.17 1681.21 1559.21 1677.52C1561.48 1673.41 1563.71 1669.27 1565.88 1665.1C1568.43 1660.22 1570.91 1655.29 1573.33 1650.32C1574.34 1648.25 1575.34 1646.16 1576.33 1644.07C1577.3 1642.01 1578.26 1639.93 1579.22 1637.86C1584.67 1625.96 1589.77 1613.82 1594.53 1601.41C1595.54 1598.79 1596.53 1596.16 1597.51 1593.51C1603.75 1576.64 1609.39 1559.3 1614.49 1541.44C1616.99 1532.65 1619.37 1523.74 1621.62 1514.7C1623.39 1507.6 1625.07 1500.43 1626.69 1493.17L1626.79 1492.69C1627.68 1488.69 1628.55 1484.66 1629.39 1480.61C1632.15 1467.34 1634.67 1453.79 1636.97 1439.97C1646.18 1384.69 1651.85 1324.95 1655.1 1260C1655.48 1252.43 1655.82 1244.79 1656.14 1237.07C1656.96 1216.88 1657.57 1196.2 1658 1175C1652 1159.5 1638.2 1126.4 1631 1118C1623.8 1109.6 1586 1100.5 1568 1097V1172V1173.18V1209.84V1260C1577.02 1294.67 1575.29 1343.4 1560.75 1399.7C1559.78 1403.45 1558.76 1407.24 1557.68 1411.05C1556.28 1415.97 1554.79 1420.95 1553.2 1425.97C1550.72 1433.8 1548 1441.76 1545.05 1449.81C1544.59 1451.06 1544.13 1452.31 1543.66 1453.56C1542.24 1457.33 1540.78 1461.12 1539.26 1464.94C1538.25 1467.48 1537.21 1470.03 1536.15 1472.58C1534.59 1476.36 1532.98 1480.15 1531.31 1483.95C1528.98 1489.27 1526.55 1494.62 1524.02 1500.01C1520.61 1507.25 1517.02 1514.55 1513.24 1521.89C1509.97 1528.22 1506.57 1534.57 1503.02 1540.96L1503 1541L1503.04 1540.97C1507 1538.15 1510.69 1535.45 1514.18 1532.81C1520.81 1527.78 1526.68 1522.96 1532.22 1517.98C1538.26 1512.56 1543.88 1506.93 1549.62 1500.63C1550.56 1499.6 1551.5 1498.55 1552.44 1497.48C1558.26 1490.92 1564.27 1483.59 1571 1475C1570.49 1476.6 1569.99 1478.18 1569.48 1479.75C1566.82 1488.01 1564.15 1495.9 1561.45 1503.47C1555.89 1519.04 1550.17 1533.26 1543.94 1546.62C1543.58 1547.39 1543.22 1548.17 1542.86 1548.93C1541.07 1552.71 1539.24 1556.43 1537.35 1560.09C1536.9 1560.97 1536.44 1561.85 1535.98 1562.73C1533.52 1567.42 1530.97 1572.03 1528.31 1576.58C1521.85 1587.65 1514.76 1598.35 1506.83 1609.06C1504.51 1612.18 1502.12 1615.3 1499.65 1618.43C1496.28 1622.71 1492.76 1627.01 1489.07 1631.35C1478.65 1643.62 1466.91 1656.2 1453.52 1669.63C1451.85 1671.31 1450.15 1673 1448.43 1674.7C1446.32 1676.78 1444.18 1678.88 1442 1681C1442 1681 1443.33 1681 1445.79 1680.73C1449.92 1680.27 1457.23 1679.04 1466.69 1675.73C1478.62 1671.56 1493.98 1664.09 1510.72 1650.71C1513.28 1648.66 1515.88 1646.47 1518.5 1644.14C1522.61 1640.47 1526.79 1636.44 1531 1632C1526.89 1641.49 1522.99 1650.24 1519.26 1658.35C1510.13 1678.17 1502.03 1694.13 1494.48 1707.59C1491.49 1712.92 1488.58 1717.86 1485.73 1722.49C1485.29 1723.21 1484.85 1723.92 1484.4 1724.63C1484.14 1725.05 1483.88 1725.47 1483.62 1725.88L1483.3 1726.39C1470.22 1747.08 1458.13 1761.73 1444.03 1778.83L1444.03 1778.83C1443.36 1779.65 1442.69 1780.47 1442.01 1781.29L1442 1781.3C1438.17 1785.94 1434.19 1790.79 1430 1796C1429.1 1791.7 1427.4 1787.04 1425.05 1782.13C1420.94 1773.53 1414.86 1764.16 1407.65 1754.58C1404.44 1750.32 1401.01 1746.01 1397.44 1741.72C1392.67 1735.99 1387.64 1730.28 1382.54 1724.71C1380.35 1722.32 1378.15 1719.96 1375.94 1717.63C1370.18 1711.54 1364.41 1705.69 1358.9 1700.24C1352.02 1693.44 1345.53 1687.27 1339.93 1682.07C1328.66 1671.58 1321 1665 1321 1665C1326.06 1670.66 1330.51 1675.92 1334.44 1681.04C1338.7 1686.57 1342.37 1691.93 1345.58 1697.44C1352.94 1710.07 1357.93 1723.47 1362.29 1741.54C1362.87 1743.94 1363.44 1746.42 1364 1749C1349.72 1738.1 1336.99 1727.92 1325.28 1718.32C1314.87 1709.78 1305.27 1701.7 1296.11 1693.97L1293.73 1691.96L1292.25 1690.71C1289.87 1688.7 1287.51 1686.71 1285.17 1684.74C1282.33 1682.35 1279.52 1679.99 1276.72 1677.66C1272.8 1674.39 1268.91 1671.17 1265.02 1668C1260.99 1664.71 1256.96 1661.48 1252.9 1658.28C1247.94 1654.38 1242.93 1650.54 1237.79 1646.74C1235.91 1645.35 1234.01 1643.96 1232.09 1642.58C1228 1639.64 1223.83 1636.71 1219.53 1633.79C1214.31 1630.26 1208.92 1626.73 1203.28 1623.21C1198.38 1620.15 1193.3 1617.08 1188 1614C1195.89 1623.81 1201.58 1631.91 1206.71 1641.31C1209.55 1646.51 1212.22 1652.1 1214.99 1658.6C1216.6 1662.39 1218.26 1666.49 1220 1671C1217.16 1669.79 1214.39 1668.63 1211.68 1667.51C1201.01 1663.09 1191.37 1659.36 1182.17 1656.17C1176.81 1654.32 1171.6 1652.65 1166.42 1651.14C1160.22 1649.33 1154.06 1647.75 1147.76 1646.35C1133.12 1643.11 1117.69 1640.85 1099 1639C1099.29 1638.66 1099.58 1638.31 1099.86 1637.97C1100.1 1637.69 1100.34 1637.4 1100.58 1637.12C1101.89 1635.56 1103.16 1634.02 1104.41 1632.51C1109.14 1626.79 1113.46 1621.4 1117.47 1616.21C1125.52 1605.77 1132.3 1596.12 1138.54 1586.12C1140.75 1582.58 1142.89 1579 1145 1575.33C1149.03 1568.31 1152.92 1560.96 1156.91 1552.92C1159.28 1548.14 1161.69 1543.12 1164.17 1537.78C1164.45 1537.19 1164.72 1536.6 1165 1536C1165.12 1536.62 1165.23 1537.23 1165.35 1537.84C1165.62 1539.33 1165.88 1540.78 1166.12 1542.21C1166.97 1547.35 1167.58 1552.12 1168.02 1557.11C1168.3 1560.39 1168.51 1563.75 1168.65 1567.38C1168.88 1572.82 1168.97 1578.84 1169 1586C1169.81 1584.19 1170.6 1582.39 1171.37 1580.61C1176.36 1569.18 1180.72 1558.4 1184.53 1548.06C1184.85 1547.2 1185.16 1546.34 1185.47 1545.48C1186.15 1543.58 1186.82 1541.7 1187.47 1539.83C1187.58 1539.51 1187.69 1539.19 1187.8 1538.87C1188.69 1536.26 1189.55 1533.69 1190.37 1531.13C1193.17 1522.43 1195.56 1513.98 1197.56 1505.62C1200.52 1493.3 1202.64 1481.19 1204.05 1468.84C1205.18 1458.89 1205.84 1448.79 1206.09 1438.28C1206.18 1434.32 1206.22 1430.31 1206.2 1426.22C1206.18 1423.3 1206.14 1420.34 1206.06 1417.33C1205.85 1408.27 1205.38 1398.84 1204.69 1388.91C1204.4 1384.73 1204.07 1380.45 1203.71 1376.08C1203.67 1375.6 1203.63 1375.12 1203.59 1374.64C1203.4 1372.45 1203.2 1370.24 1203 1368L1202.27 1367.72L1190.26 1363.1L1183.5 1360.5L1154.5 1366L1151.44 1372.71L1144 1389C1147.3 1388.53 1150.03 1389.86 1152.17 1392.73C1154.42 1395.74 1156.03 1400.45 1156.96 1406.53C1157.85 1412.31 1158.13 1419.34 1157.79 1427.34C1157.4 1436.72 1156.14 1447.45 1154.01 1459.06C1152.66 1466.38 1150.97 1474.05 1148.92 1481.96C1145.54 1494.98 1141.2 1508.66 1135.87 1522.51C1134.11 1527.07 1132.24 1531.65 1130.27 1536.23C1129.26 1538.57 1128.22 1540.92 1127.15 1543.27C1124.12 1549.9 1120.87 1556.51 1117.38 1563.05C1113.34 1570.64 1108.98 1578.14 1104.3 1585.45L1104.08 1585.8C1103.98 1585.96 1103.88 1586.11 1103.78 1586.26C1098.95 1593.77 1093.78 1601.09 1088.26 1608.13C1086.18 1610.78 1084.06 1613.39 1081.88 1615.95C1080.45 1617.63 1079.01 1619.3 1077.54 1620.94C1077.37 1621.12 1077.21 1621.31 1077.04 1621.49C1074.11 1624.75 1071.1 1627.92 1068 1631C1068.55 1628.08 1069.06 1625.24 1069.54 1622.47C1069.96 1619.99 1070.36 1617.57 1070.73 1615.21C1072.43 1604.36 1073.52 1594.8 1074.04 1586.38C1074.81 1573.93 1074.33 1563.97 1072.74 1556C1072.59 1555.25 1072.43 1554.52 1072.26 1553.81C1071.01 1548.53 1069.23 1544.2 1066.95 1540.63C1064.99 1537.55 1062.66 1535.04 1060 1533C1059.93 1534.49 1059.86 1535.97 1059.77 1537.44C1059.39 1544.04 1058.86 1550.39 1058.16 1556.51C1057.53 1561.98 1056.78 1567.26 1055.89 1572.38C1055.05 1577.22 1054.09 1581.9 1053.01 1586.46C1052.1 1590.32 1051.1 1594.09 1050.01 1597.78C1048.86 1601.65 1047.62 1605.44 1046.27 1609.14C1044.2 1614.82 1041.9 1620.3 1039.36 1625.62C1039.22 1625.9 1039.09 1626.19 1038.95 1626.47C1037.99 1628.45 1036.99 1630.42 1035.96 1632.36C1035.89 1632.5 1035.81 1632.64 1035.74 1632.78C1031.77 1640.21 1027.3 1647.37 1022.29 1654.36C1013.95 1665.98 1004.14 1677.13 992.757 1688.31C991.167 1689.87 989.546 1691.44 987.895 1693C986.953 1693.89 986.001 1694.78 985.039 1695.68C981.136 1699.3 977.067 1702.94 972.827 1706.62C971.867 1707.45 970.899 1708.28 969.922 1709.12C957.957 1719.34 944.674 1729.85 930 1741C933.969 1719.83 950.388 1697.88 954.205 1693C954.715 1692.35 955 1692 955 1692C954.617 1692.33 954.236 1692.67 953.857 1693C940.123 1705.07 929.578 1716.1 920.285 1728.22C917.884 1731.35 915.566 1734.55 913.299 1737.87C905.81 1748.82 898.869 1760.96 891.273 1775.63C888.923 1780.16 886.511 1784.94 884 1790C884.22 1785.28 884.401 1780.82 884.543 1776.59C884.724 1771.18 884.839 1766.14 884.885 1761.41C884.965 1753.12 884.831 1745.77 884.464 1739C884.342 1736.73 884.193 1734.53 884.017 1732.38C882.877 1718.41 880.606 1706.56 877 1693C873.394 1706.56 871.123 1718.41 869.983 1732.38C869.807 1734.53 869.658 1736.73 869.536 1739C869.169 1745.77 869.035 1753.12 869.115 1761.41C869.161 1766.14 869.276 1771.18 869.457 1776.59C869.599 1780.82 869.78 1785.28 870 1790C867.489 1784.94 865.077 1780.16 862.727 1775.63C855.131 1760.96 848.19 1748.82 840.701 1737.87C838.434 1734.55 836.116 1731.35 833.715 1728.22C824.422 1716.1 813.877 1705.07 800.143 1693C799.764 1692.67 799.383 1692.33 799 1692C799 1692 799.285 1692.35 799.795 1693C803.612 1697.88 820.031 1719.83 824 1741C809.326 1729.85 796.043 1719.34 784.078 1709.12C783.101 1708.28 782.133 1707.45 781.173 1706.62C776.933 1702.94 772.864 1699.3 768.961 1695.68C767.999 1694.78 767.047 1693.89 766.105 1693C764.454 1691.44 762.833 1689.87 761.243 1688.31C749.856 1677.13 740.047 1665.98 731.713 1654.36C726.704 1647.37 722.227 1640.21 718.26 1632.78L718.158 1632.59C718.118 1632.51 718.078 1632.43 718.038 1632.36C717.008 1630.42 716.013 1628.45 715.052 1626.47C714.977 1626.32 714.904 1626.16 714.83 1626.01C714.768 1625.88 714.705 1625.75 714.643 1625.62C712.097 1620.3 709.796 1614.82 707.732 1609.14C706.384 1605.44 705.138 1601.65 703.99 1597.78C702.9 1594.09 701.899 1590.32 700.985 1586.46C699.906 1581.9 698.949 1577.22 698.111 1572.38C697.223 1567.26 696.469 1561.98 695.844 1556.51C695.144 1550.39 694.607 1544.04 694.229 1537.44C694.145 1535.97 694.068 1534.49 694 1533C691.336 1535.04 689.01 1537.55 687.047 1540.63C684.774 1544.2 682.99 1548.53 681.739 1553.81C681.569 1554.52 681.409 1555.25 681.259 1556C679.666 1563.97 679.189 1573.93 679.959 1586.38C680.479 1594.8 681.569 1604.36 683.269 1615.21C683.638 1617.57 684.036 1619.99 684.463 1622.47C684.939 1625.24 685.451 1628.08 686 1631C682.902 1627.92 679.888 1624.75 676.958 1621.49C676.793 1621.31 676.628 1621.12 676.464 1620.94C674.994 1619.3 673.546 1617.63 672.118 1615.95C669.944 1613.39 667.818 1610.78 665.741 1608.13C660.225 1601.09 655.051 1593.77 650.216 1586.26C650.043 1585.99 649.87 1585.72 649.698 1585.45C645.02 1578.14 640.661 1570.64 636.616 1563.05C633.129 1556.51 629.877 1549.9 626.854 1543.27C625.784 1540.92 624.743 1538.57 623.731 1536.23C621.757 1531.65 619.891 1527.07 618.134 1522.51C612.798 1508.66 608.458 1494.98 605.083 1481.96C603.031 1474.05 601.336 1466.38 599.991 1459.06C597.855 1447.45 596.603 1436.72 596.206 1427.34C595.868 1419.34 596.152 1412.31 597.04 1406.53C597.974 1400.45 599.576 1395.74 601.826 1392.73C603.969 1389.86 606.699 1388.53 610 1389L602.563 1372.71L599.5 1366L570.5 1360.5L563.743 1363.1L551.732 1367.72L551 1368C550.796 1370.24 550.6 1372.45 550.413 1374.64C550.373 1375.12 550.332 1375.6 550.292 1376.08C549.926 1380.45 549.596 1384.73 549.306 1388.91C548.618 1398.84 548.151 1408.27 547.935 1417.33C547.864 1420.34 547.82 1423.3 547.805 1426.22C547.783 1430.31 547.818 1434.32 547.911 1438.28C548.159 1448.79 548.821 1458.89 549.953 1468.84C551.357 1481.19 553.485 1493.3 556.442 1505.62C558.445 1513.98 560.828 1522.43 563.625 1531.13C564.448 1533.69 565.306 1536.26 566.201 1538.87C566.311 1539.19 566.421 1539.51 566.532 1539.83C567.18 1541.7 567.846 1543.58 568.532 1545.48C568.841 1546.34 569.154 1547.2 569.471 1548.06C573.275 1558.4 577.644 1569.18 582.627 1580.61C583.403 1582.39 584.194 1584.19 585 1586C585.029 1578.84 585.122 1572.82 585.345 1567.38C585.494 1563.75 585.701 1560.39 585.984 1557.11C586.416 1552.12 587.026 1547.35 587.883 1542.21C588.12 1540.78 588.377 1539.33 588.653 1537.84C588.765 1537.23 588.881 1536.62 589 1536C589.205 1536.44 589.408 1536.88 589.612 1537.32L589.828 1537.78C592.314 1543.12 594.72 1548.14 597.092 1552.92C601.081 1560.96 604.975 1568.31 608.999 1575.33C611.105 1579 613.248 1582.58 615.457 1586.12C621.701 1596.12 628.484 1605.77 636.533 1616.21C640.541 1621.4 644.863 1626.79 649.588 1632.51C650.837 1634.02 652.114 1635.56 653.42 1637.12C653.682 1637.43 653.944 1637.74 654.208 1638.06C654.471 1638.37 654.735 1638.68 655 1639C636.311 1640.85 620.885 1643.11 606.244 1646.35C599.942 1647.75 593.784 1649.33 587.575 1651.14C582.402 1652.65 577.192 1654.32 571.833 1656.17C562.631 1659.36 552.985 1663.09 542.318 1667.51C539.614 1668.63 536.845 1669.79 534 1671C535.743 1666.49 537.395 1662.39 539.011 1658.6C541.783 1652.1 544.449 1646.51 547.285 1641.31C552.419 1631.91 558.111 1623.81 566 1614C560.7 1617.08 555.619 1620.15 550.719 1623.21C545.084 1626.73 539.688 1630.26 534.474 1633.79C530.173 1636.71 525.997 1639.64 521.911 1642.58C519.992 1643.96 518.094 1645.35 516.213 1646.74C511.074 1650.54 506.06 1654.38 501.103 1658.28C497.035 1661.48 493.006 1664.71 488.977 1668C485.088 1671.17 481.2 1674.39 477.279 1677.66C474.483 1679.99 471.669 1682.35 468.826 1684.74C466.489 1686.71 464.133 1688.7 461.749 1690.71L460.267 1691.96L457.892 1693.97C448.728 1701.7 439.128 1709.78 428.72 1718.32C417.013 1727.92 404.284 1738.1 390 1749C390.561 1746.42 391.129 1743.94 391.708 1741.54C396.066 1723.47 401.06 1710.07 408.422 1697.44C411.635 1691.93 415.299 1686.57 419.558 1681.04C423.493 1675.92 427.936 1670.66 433 1665C433 1665 425.339 1671.58 414.066 1682.07C408.469 1687.27 401.981 1693.44 395.098 1700.24C389.586 1705.69 383.82 1711.54 378.056 1717.63C375.854 1719.96 373.651 1722.32 371.463 1724.71C366.358 1730.28 361.331 1735.99 356.563 1741.72C352.986 1746.01 349.556 1750.32 346.346 1754.58C339.143 1764.16 333.055 1773.53 328.945 1782.13C326.6 1787.04 324.898 1791.7 324 1796C319.807 1790.79 315.826 1785.94 312 1781.3L311.993 1781.29C311.378 1780.54 310.767 1779.8 310.16 1779.07L309.968 1778.83C295.866 1761.73 283.778 1747.08 270.703 1726.39C270.597 1726.22 270.49 1726.05 270.383 1725.88C270.121 1725.47 269.859 1725.05 269.596 1724.63C269.155 1723.92 268.712 1723.21 268.269 1722.49C265.419 1717.86 262.514 1712.92 259.524 1707.59C251.968 1694.13 243.87 1678.17 234.743 1658.35C231.012 1650.24 227.109 1641.49 223 1632C227.209 1636.44 231.386 1640.47 235.501 1644.14C238.121 1646.47 240.717 1648.66 243.28 1650.71C260.015 1664.09 275.376 1671.56 287.31 1675.73C296.773 1679.04 304.082 1680.27 308.214 1680.73C310.667 1681 312 1681 312 1681C309.818 1678.88 307.676 1676.78 305.574 1674.7C303.849 1673 302.151 1671.31 300.479 1669.63C287.087 1656.2 275.354 1643.62 264.928 1631.35C261.242 1627.01 257.72 1622.71 254.346 1618.43C251.878 1615.3 249.49 1612.18 247.174 1609.06C239.235 1598.35 232.155 1587.65 225.69 1576.58C223.035 1572.03 220.484 1567.42 218.02 1562.73C217.559 1561.85 217.102 1560.97 216.647 1560.09C214.765 1556.43 212.933 1552.71 211.143 1548.93C210.779 1548.17 210.417 1547.39 210.056 1546.62C203.833 1533.26 198.111 1519.04 192.55 1503.47C189.847 1495.9 187.183 1488.01 184.517 1479.75C184.012 1478.18 183.506 1476.6 183 1475C189.735 1483.59 195.745 1490.92 201.556 1497.48C202.501 1498.55 203.441 1499.6 204.378 1500.63C210.117 1506.93 215.744 1512.56 221.779 1517.98C227.315 1522.96 233.195 1527.78 239.82 1532.81C243.306 1535.45 246.998 1538.15 250.955 1540.97L251 1541L250.975 1540.96C247.429 1534.57 244.027 1528.22 240.765 1521.89C236.98 1514.55 233.385 1507.25 229.977 1500.01C227.445 1494.62 225.016 1489.27 222.689 1483.95C221.024 1480.15 219.41 1476.36 217.849 1472.58C216.789 1470.03 215.754 1467.48 214.742 1464.94C213.222 1461.12 211.756 1457.33 210.342 1453.56C209.873 1452.31 209.41 1451.06 208.953 1449.81C205.997 1441.76 203.282 1433.8 200.802 1425.97C199.213 1420.95 197.721 1415.97 196.325 1411.05C195.242 1407.24 194.216 1403.45 193.247 1399.7C178.708 1343.4 176.981 1294.67 186 1260V1209.84V1173.18V1172V1097C168 1100.5 130.2 1109.6 123 1118C115.8 1126.4 102 1159.5 96 1175C96.4288 1196.2 97.0392 1216.88 97.8629 1237.07C98.1776 1244.79 98.5234 1252.43 98.9022 1260Z" fill="black"/>
</svg>
